<?xml version="1.0" standalone="no"?>
<!DOCTYPE svg PUBLIC "-//W3C//DTD SVG 1.1//EN" "http://www.w3.org/Graphics/SVG/1.1/DTD/svg11.dtd" >
<svg xmlns="http://www.w3.org/2000/svg" xmlns:xlink="http://www.w3.org/1999/xlink" version="1.1">
<metadata></metadata>
<defs>
<font id="terminal_grotesque_openopen" horiz-adv-x="434" >
<font-face units-per-em="2048" ascent="1638" descent="-410" />
<missing-glyph horiz-adv-x="593" />
<glyph unicode="&#xfb01;" horiz-adv-x="1054" d="M82 786v197h131v197h66v65h65v66h328v-131h-197v-66h-65v-131h196v-197h-196v-786h-197v786h-131zM147 852h132v-786h65v786h197v66h-197v196h-65v-196h-132v-66zM737 0v983h197v-983h-197zM737 1114v197h197v-197h-197zM803 66h65v852h-65v-852zM803 1180h65v65h-65v-65 z" />
<glyph unicode="&#xfb02;" horiz-adv-x="1054" d="M82 786v197h131v197h66v65h65v66h459v-66h65v-65h66v-1180h-197v1114h-65v66h-197v-66h-65v-131h196v-197h-196v-786h-197v786h-131zM147 852h132v-786h65v786h197v66h-197v196h-65v-196h-132v-66zM803 66h65v1048h-65v-1048z" />
<glyph horiz-adv-x="0" />
<glyph horiz-adv-x="682" />
<glyph unicode=" "  horiz-adv-x="593" />
<glyph unicode="&#x09;" horiz-adv-x="593" />
<glyph unicode="&#xa0;" horiz-adv-x="593" />
<glyph unicode="!" d="M117 0v197h196v-197h-196zM117 393v918h196v-918h-196zM182 66h66v65h-66v-65zM182 459h66v786h-66v-786z" />
<glyph unicode="&#x22;" horiz-adv-x="579" d="M66 983v328h131v-328h-131zM328 983v328h131v-328h-131z" />
<glyph unicode="#" horiz-adv-x="1540" d="M45 328v131h328v196h65v197h-196v131h327v197h66v131h196v-131h-65v-197h328v197h65v131h197v-131h-66v-197h197v-131h-328v-197h-65v-196h196v-131h-327v-197h-66v-131h-197v131h66v197h-328v-197h-65v-131h-197v131h66v197h-197zM307 197h66v196h-66v-196zM438 393h66 v197h-66v-197zM504 721h65v197h-65v-197zM569 459h328v196h66v197h-328v-197h-66v-196zM635 918h65v196h-65v-196zM831 197h66v196h-66v-196zM963 393h65v197h-65v-197zM1028 721h66v197h-66v-197zM1159 918h66v196h-66v-196z" />
<glyph unicode="$" horiz-adv-x="1050" d="M104 197v131h197v-66h66v-65h131v393h-66v65h-196v66h-66v65h-66v328h66v66h66v65h65v66h197v131h131v-131h131v-66h65v-65h66v-131h-197v65h-65v-393h131v-66h131v-131h65v-327h-65v-66h-66v-65h-131v-66h-65v-131h-131v131h-131v66h-131v65h-66v66h-66zM170 852h66v197 h-66v-197zM301 721h66v65h-66v-65zM301 852h131v-66h66v328h-131v-65h-66v-197zM367 1180h196h131v65h-327v-65zM432 66h197v65h-197v-65zM498 655h65v-65h131v65h-131v66h-65v-66zM629 197h65v65h66v197h-66v65h-65v-327zM760 524h65v66h-65v-66zM825 262h66v197h-66v-197z " />
<glyph unicode="%" horiz-adv-x="1331" d="M96 0v66h66v131h65v65h66v66h65v131h66v65h65v66h66v131h66v65h65v66h66v131h65v66h66v65h65v131h66v66h196v-66h-65v-131h-66v-65h-65v-66h-66v-131h-65v-66h-66v-65h-65v-131h-66v-66h-65v-65h-66v-131h-66v-66h-65v-65h-66v-131h-65v-66h-197zM96 983v197h66v65h65v66 h131v-66h66v-65h65v-197h-65v-65h-66v-66h-131v66h-65v65h-66zM227 983h131v197h-131v-197zM817 131v197h66v65h65v66h131v-66h66v-65h65v-197h-65v-65h-66v-66h-131v66h-65v65h-66zM948 131h131v197h-131v-197z" />
<glyph unicode="&#x26;" horiz-adv-x="1200" d="M92 262v262h66v131h65v66h66v65h-66v66h-65v197h65v131h66v65h131v66h262v-66h131v-65h66v-66h65v-196h-65v-66h-197v66h66v131h-66v65h-262v-65h-66v-197h66v-66h131v-131h-131v-65h-66v-66h-65v-262h65v-65h394v65h65v197h-65v131h393v-131h-131v-262h-66v-66h-65v-65 h-66v-66h-459v66h-131v65h-65v131h-66zM158 328h65v131h-65v-131zM223 918h66v65h-66v-65zM420 66h328v65h-328v-65zM485 1180h131v65h-131v-65zM813 983h66v66h-66v-66zM879 262h65v262h-65v-262z" />
<glyph unicode="'" horiz-adv-x="317" d="M66 983v328h131v-328h-131z" />
<glyph unicode="(" horiz-adv-x="673" d="M94 393v525h66v196h65v66h66v65h65v66h197v-66h-66v-65h-65v-131h-66v-197h-65v-393h65v-197h66v-131h65v-65h66v-66h-197v66h-65v65h-66v66h-65v196h-66zM160 459h65v393h-65v-393zM225 262h66v131h-66v-131zM225 918h66v131h-66v-131z" />
<glyph unicode=")" horiz-adv-x="628" d="M72 0v66h65v65h66v131h65v197h66v393h-66v197h-65v131h-66v65h-65v66h196v-66h66v-65h65v-66h66v-196h65v-525h-65v-196h-66v-66h-65v-65h-66v-66h-196zM334 262h65v131h-65v-131zM334 918h65v131h-65v-131zM399 459h66v393h-66v-393z" />
<glyph unicode="*" horiz-adv-x="622" d="M43 1180v65h197v131h65v-131h197v-65h-66v-66h-65v-65h65v-131h-65v65h-66v66h-65v-66h-66v-65h-65v131h65v65h-65v66h-66zM240 1114h65v66h-65v-66z" />
<glyph unicode="+" horiz-adv-x="1073" d="M31 459v196h393v394h197v-394h393v-196h-393v-393h-197v393h-393zM96 524h393v-393h66v393h393v66h-393v393h-66v-393h-393v-66z" />
<glyph unicode="," horiz-adv-x="368" d="M55 0v197h197v-328h-66v-66h-131v66h66v65h65v66h-131zM121 66h65v65h-65v-65z" />
<glyph unicode="-" horiz-adv-x="864" d="M72 459v196h721v-196h-721zM137 524h590v66h-590v-66z" />
<glyph unicode="." horiz-adv-x="350" d="M55 0v197h197v-197h-197zM121 66h65v65h-65v-65z" />
<glyph unicode="/" horiz-adv-x="980" d="M-20 0h65v131h66v131h65v131h66v131h65v131h66v131h65v132h66v131h65v131h66v131h65v131h197v-131h-66v-131h-65v-131h-66v-131h-65v-132h-66v-131h-65v-131h-66v-131h-65v-131h-66v-131h-65v-131h-66v-131h-196v131z" />
<glyph unicode="0" horiz-adv-x="1177" d="M96 393v525h66v196h65v131h131v66h459v-66h131v-131h66v-196h65v-525h-65v-196h-66v-131h-131v-66h-459v66h-131v131h-65v196h-66zM162 459h65v393h-65v-393zM227 262h66v131h-66v-131zM227 918h66v131h-66v-131zM293 131h65v66h-65v-66zM293 459h65v-197h66v-65h328v65 h65v197h66v393h-66v197h-65v65h-328v-65h-66v-197h-65v-393zM293 1114h65v66h-65v-66zM424 66h328v65h-328v-65zM424 1180h328v65h-328v-65zM817 131h66v66h-66v-66zM817 1114h66v66h-66v-66zM883 262h65v131h-65v-131zM883 918h65v131h-65v-131zM948 459h66v393h-66v-393z " />
<glyph unicode="1" horiz-adv-x="575" d="M61 983v131h66v66h66v65h65v66h197v-1311h-197v983h-197zM193 1049h131v-983h65v1179h-65v-65h-66v-66h-65v-65z" />
<glyph unicode="2" horiz-adv-x="1118" d="M102 0v197h66v65h65v66h66v65h66v66h65v65h66v66h65v65h66v66h65v65h66v263h-66v65h-262v-65h-65v-66h-66v-131h-197v131h66v131h65v66h66v65h66v66h393v-66h65v-65h66v-66h65v-393h-65v-66h-66v-65h-65v-66h-66v-65h-65v-66h-66v-65h-65v-66h-66v-65h590v-197h-918z M168 66h786v65h-589v131h-66v-65h-66v-66h-65v-65zM430 1180h262v65h-262v-65zM823 786h66v263h-66v-263z" />
<glyph unicode="3" horiz-adv-x="1071" d="M98 197v131h197v-66h65v-65h328v65h66v262h-66v66h-262v196h262v66h66v197h-66v65h-328v-65h-65v-66h-197v131h66v66h65v65h66v66h393v-66h131v-65h66v-66h65v-328h-65v-65h-66v-66h66v-65h65v-393h-65v-66h-66v-65h-131v-66h-393v66h-66v65h-65v66h-66zM360 66h263v65 h-263v-65zM360 1180h263v65h-263v-65zM492 655h262v66h-262v-66zM819 262h66v262h-66v-262zM819 852h66v197h-66v-197z" />
<glyph unicode="4" horiz-adv-x="1091" d="M49 328v393h66v65h65v66h66v66h65v65h66v66h65v65h66v66h65v65h66v66h197v-787h196v-196h-196v-328h-197v328h-590zM115 393h590v-327h65v327h197v66h-197v786h-65v-65h-66v-66h-66v-65h132v-590h-525v196h-65v-262zM246 524h393v459h-66v-65h-65v-66h-66v-66h-65v-65 h-66v-66h-65v-131z" />
<glyph unicode="5" horiz-adv-x="1087" d="M90 197v196h197v-131h65v-65h262v65h131v131h66v131h-66v66h-65v65h-66v66h-458v262h65v197h66v131h590v-197h-459v-131h-66v-65h328v-66h131v-66h66v-65h65v-131h66v-262h-66v-131h-65v-66h-66v-65h-131v-66h-328v66h-131v65h-65v66h-66zM156 262h65v66h-65v-66z M221 786h393v66h-327v66h-66v-132zM287 1049h65v65h-65v-65zM352 1180h459v65h-459v-65zM418 66h196v65h-196v-65zM680 131h65v66h-65v-66zM680 721h65v-66h66v-65h66v65h-66v66h-66v65h-65v-65zM811 262h66v66h-66v-66zM877 393h65v131h-65v-131z" />
<glyph unicode="6" horiz-adv-x="1134" d="M96 393v525h66v196h65v131h131v66h459v-66h131v-131h66v-131h-197v66h-65v65h-328v-65h-66v-197h-65v-197h65v66h66v65h459v-65h65v-66h66v-458h-66v-131h-131v-66h-459v66h-131v131h-65v196h-66zM162 459h65v-197h66v328h-66v262h-65v-393zM227 918h66v131h-66v-131z M293 131h65v66h-65v-66zM293 1114h65v66h-65v-66zM358 262h66v-65h328v65h65v262h-65v66h-328v-66h-66v-262zM424 66h328v65h-328v-65zM424 1180h328v65h-328v-65zM489 655h328v-65h66v-328h65v328h-65v65h-66v66h-328v-66zM817 131h66v66h-66v-66zM817 1114h66v66h-66v-66z " />
<glyph unicode="7" horiz-adv-x="1105" d="M2 1114v197h983v-197h-65v-131h-66v-65h-66v-132h-65v-131h-66v-131h-65v-131h-66v-196h-65v-197h-197v262h66v131h65v197h66v131h65v131h66v131h65v66h66v65h-721zM68 1180h720v-131h66v131h66v65h-852v-65zM330 66h65v131h-65v-131zM395 262h66v66h-66v-66zM461 459h65 v65h-65v-65zM526 590h66v65h-66v-65zM592 721h65v65h-65v-65zM657 852h66v66h-66v-66z" />
<glyph unicode="8" horiz-adv-x="1099" d="M92 262v262h66v131h65v66h66v65h-66v66h-65v197h65v131h66v65h131v66h262v-66h131v-65h66v-131h65v-197h-65v-66h-66v-65h66v-66h65v-131h66v-262h-66v-131h-65v-65h-131v-66h-394v66h-131v65h-65v131h-66zM158 328h65v131h-65v-131zM223 918h66v65h-66v-65zM289 262h65 v-65h394v65h65v262h-65v66h-66v65h-262v-65h-66v-66h-65v-262zM354 852h66v-66h262v66h66v197h-66v65h-262v-65h-66v-197zM420 66h262v65h-262v-65zM485 1180h131v65h-131v-65zM813 918h66v65h-66v-65zM879 328h65v131h-65v-131z" />
<glyph unicode="9" horiz-adv-x="1124" d="M109 197v131h196v-66h66v-65h327v65h66v197h65v196h-65v-65h-66v-66h-458v66h-66v131h-65v328h65v196h131v66h459v-66h131v-131h66v-196h65v-525h-65v-196h-66v-131h-131v-66h-459v66h-131v131h-65zM174 786h66v197h-66v-197zM240 131h65v66h-65v-66zM240 655h65v-65h328 v65h-328v66h-65v-66zM240 1114h65v66h-65v-66zM305 786h66v-65h327v65h66v263h-66v65h-327v-65h-66v-263zM371 66h327v65h-327v-65zM371 1180h327v65h-327v-65zM764 131h65v66h-65v-66zM764 1114h65v66h-65v-66zM829 262h66v131h-66v-131zM829 721h66v-262h66v393h-66v197 h-66v-328z" />
<glyph unicode=":" horiz-adv-x="399" d="M102 66v196h197v-196h-197zM102 655v197h197v-197h-197zM168 131h65v66h-65v-66zM168 721h65v65h-65v-65z" />
<glyph unicode=";" horiz-adv-x="415" d="M102 0v197h197v-328h-66v-66h-131v66h66v65h65v66h-131zM102 721v197h197v-197h-197zM168 66h65v65h-65v-65zM168 786h65v66h-65v-66z" />
<glyph unicode="&#x3c;" horiz-adv-x="749" d="M39 590v65h65v66h66v65h66v66h65v66h66v65h65v66h66v65h65v-65h66v-66h-66v-65h-65v-66h-66v-66h-65v-65h-66v-66h-65v-65h65v-66h66v-65h65v-66h66v-65h65v-66h66v-65h-66v-66h-65v66h-66v65h-65v66h-66v65h-65v66h-66v65h-66v66h-65z" />
<glyph unicode="=" horiz-adv-x="1249" d="M100 262v197h1049v-197h-1049zM100 721v197h1049v-197h-1049zM166 328h917v65h-917v-65zM166 786h917v66h-917v-66z" />
<glyph unicode="&#x3e;" horiz-adv-x="749" d="M100 197v65h66v66h65v65h66v66h65v65h66v66h66v65h-66v66h-66v65h-65v66h-66v66h-65v65h-66v66h66v65h65v-65h66v-66h65v-65h66v-66h66v-66h65v-65h66v-66h65v-65h-65v-66h-66v-65h-65v-66h-66v-65h-66v-66h-65v-65h-66v-66h-65v66h-66z" />
<glyph unicode="?" horiz-adv-x="1087" d="M49 852v131h66v131h65v66h66v65h65v66h394v-66h131v-65h65v-66h66v-328h-66v-65h-65v-66h-66v-65h-65v-66h-66v-131h-197v197h66v65h65v66h66v65h66v66h65v197h-65v65h-328v-65h-66v-66h-65v-131h-197zM377 1180h262v65h-262v-65zM442 0v197h197v-197h-197zM508 66h65v65 h-65v-65zM508 459h65v65h-65v-65zM836 852h65v197h-65v-197z" />
<glyph unicode="@" horiz-adv-x="1239" d="M96 262v590h66v131h65v66h66v65h65v66h131v65h328v-65h131v-66h66v-65h65v-66h66v-655h-66v-66h-65v-65h-131v65h-66v66h-65v-66h-66v-65h-197v65h-65v66h-66v458h66v66h65v66h328v-66h66v-524h65v65h66v525h-66v65h-65v66h-131v65h-197v-65h-131v-66h-66v-65h-65v-66 h-66v-590h66v-65h65v-66h131v-65h197v-132h-262v66h-131v66h-66v65h-65v131h-66zM489 393h66v-65h131v65h66v393h-197v-65h-66v-328z" />
<glyph unicode="A" horiz-adv-x="1380" d="M37 0v197h65v131h66v196h65v131h66v131h66v132h65v131h66v131h65v131h197v-131h65v-131h66v-131h65v-132h66v-131h65v-131h66v-196h66v-131h65v-197h-197v131h-65v131h-66v131h-589v-131h-66v-131h-66v-131h-196zM102 66h66v65h-66v-65zM168 197h65v65h-65v-65zM233 328 h66v131h-66v-131zM299 459h721v-131h65v131h-65v131h-66v-66h-589v66h-66v-131zM430 590h459v65h-66v131h-65v132h-66v131h-65v-131h-66v-132h-65v-131h-66v-65zM627 1114h65v131h-65v-131zM1085 197h66v65h-66v-65zM1151 66h66v65h-66v-65z" />
<glyph unicode="B" horiz-adv-x="1130" d="M117 0v1311h655v-66h66v-65h65v-66h66v-328h-66v-131h66v-65h65v-393h-65v-66h-66v-65h-65v-66h-721zM182 66h590v65h-524v524h590v131h-66v-65h-524v459h459v65h-525v-1179zM313 197h459v65h66v262h-66v66h-459v-393zM313 786h394v66h65v197h-65v65h-394v-328zM838 852 h65v197h-65v-197zM903 262h66v262h-66v-262z" />
<glyph unicode="C" horiz-adv-x="1353" d="M90 393v525h66v131h65v65h66v66h65v65h197v66h328v-66h196v-65h66v-131h65v-66h66v-65h-262v65h-66v66h-131v65h-197v-65h-131v-66h-65v-65h-66v-132h-65v-262h65v-131h66v-65h65v-66h131v-65h197v65h131v66h66v65h262v-65h-66v-66h-65v-131h-66v-65h-196v-66h-328v66 h-197v65h-65v66h-66v65h-65v131h-66zM156 459h65v-131h66v-66h65v-65h66v-66h131v66h-131v65h-66v66h-65v131h-66v393h-65v-393zM221 852h66v131h-66v-131zM287 983h65v66h-65v-66zM352 1049h66v65h-66v-65zM418 1114h131v66h-131v-66zM614 66h197v65h-197v-65zM614 1180 h197v65h-197v-65zM877 131h131v66h-131v-66zM877 1114h131v-65h65v65h-65v66h-131v-66zM1008 197h65v65h-65v-65z" />
<glyph unicode="D" horiz-adv-x="1259" d="M117 0v1311h590v-66h196v-65h66v-66h65v-65h66v-131h65v-525h-65v-131h-66v-65h-65v-66h-66v-65h-196v-66h-590zM182 66h459v65h-393v1049h393v65h-459v-1179zM313 197h328v65h131v66h66v65h65v131h66v262h-66v132h-65v65h-66v66h-131v65h-328v-917zM707 131h131v66h-131 v-66zM707 1114h131v-65h65v-66h66v-131h65v-393h66v393h-66v131h-65v66h-66v65h-65v66h-131v-66zM838 197h65v65h-65v-65zM903 262h66v66h-66v-66zM969 328h65v131h-65v-131z" />
<glyph unicode="E" horiz-adv-x="1024" d="M117 0v1311h786v-197h-590v-328h590v-196h-590v-393h590v-197h-786zM182 66h656v65h-590v524h590v66h-590v459h590v65h-656v-1179z" />
<glyph unicode="F" horiz-adv-x="1024" d="M117 0v1311h786v-197h-590v-328h590v-196h-590v-590h-196zM182 66h66v589h590v66h-590v459h590v65h-656v-1179z" />
<glyph unicode="G" horiz-adv-x="1366" d="M90 393v525h66v131h65v65h66v66h65v65h197v66h328v-66h196v-65h66v-131h65v-66h66v-65h-262v65h-66v66h-131v65h-197v-65h-131v-66h-65v-65h-66v-132h-65v-262h65v-131h66v-65h65v-66h131v-65h197v65h131v66h66v65h65v131h-393v197h590v-393h-66v-66h-65v-131h-66v-65 h-196v-66h-328v66h-197v65h-65v66h-66v65h-65v131h-66zM156 459h65v-131h66v-66h65v-65h66v-66h131v66h-131v65h-66v66h-65v131h-66v393h-65v-393zM221 852h66v131h-66v-131zM287 983h65v66h-65v-66zM352 1049h66v65h-66v-65zM418 1114h131v66h-131v-66zM614 66h197v65h-197 v-65zM614 1180h197v65h-197v-65zM745 590h394v-197h65v262h-459v-65zM877 131h131v66h-131v-66zM877 1114h131v-65h65v65h-65v66h-131v-66zM1008 197h65v65h-65v-65z" />
<glyph unicode="H" horiz-adv-x="1220" d="M117 0v1311h196v-525h590v525h197v-1311h-197v590h-590v-590h-196zM182 66h66v589h721v-589h65v1179h-65v-524h-721v524h-66v-1179z" />
<glyph unicode="I" d="M117 0v1311h196v-1311h-196zM182 66h66v1179h-66v-1179z" />
<glyph unicode="J" horiz-adv-x="872" d="M31 197v262h196v-197h66v-65h196v65h66v1049h197v-1114h-66v-131h-131v-66h-328v66h-131v131h-65zM96 262h66v131h-66v-131zM162 131h65v66h-65v-66zM293 66h196v65h-196v-65zM555 131h66v66h-66v-66zM621 262h65v983h-65v-983z" />
<glyph unicode="K" horiz-adv-x="1394" d="M117 0v1311h196v-590h66v65h65v66h66v66h65v65h66v66h66v65h65v66h66v65h65v66h262v-66h-65v-65h-66v-66h-65v-65h-66v-66h-65v-65h-66v-66h-65v-66h-66v-131h66v-65h65v-66h66v-65h65v-66h66v-65h65v-66h66v-65h65v-66h66v-65h65v-66h-262v66h-65v65h-66v66h-65v65h-66 v66h-65v65h-66v66h-66v65h-65v66h-66v-66h-65v-65h-66v-459h-196zM182 66h66v458h65v66h66v65h-131v590h-66v-1179zM444 655h131v131h-65v-65h-66v-66z" />
<glyph unicode="L" horiz-adv-x="1067" d="M117 0v1311h196v-1114h656v-197h-852zM182 66h721v65h-655v1114h-66v-1179z" />
<glyph unicode="M" horiz-adv-x="1482" d="M117 0v1311h327v-197h66v-131h65v-197h66v-196h66v-262h65v262h66v196h65v197h66v131h65v197h328v-1311h-197v983h-65v-131h-66v-262h-65v-262h-66v-197h-65v-131h-197v131h-66v197h-65v262h-66v262h-65v131h-66v-983h-196zM182 66h66v983h131v196h-197v-1179zM510 655 h65v66h-65v-66zM575 393h66v131h-66v-131zM641 197h66v-131h65v131h66v65h-197v-65zM838 393h65v131h-65v-131zM903 655h66v66h-66v-66zM1100 1049h131v-983h65v1179h-196v-196z" />
<glyph unicode="N" horiz-adv-x="1286" d="M117 0v1311h327v-131h66v-131h65v-131h66v-132h66v-131h65v-131h66v-131h65v-131h66v1049h196v-1311h-327v131h-66v131h-65v131h-66v131h-66v131h-65v131h-66v132h-65v131h-66v-1049h-196zM182 66h66v1048h131v131h-197v-1179zM903 66h197v1179h-66v-1048h-131v-131z" />
<glyph unicode="O" horiz-adv-x="1429" d="M90 393v525h66v131h65v65h66v66h65v65h197v66h328v-66h196v-65h66v-66h65v-65h66v-131h65v-525h-65v-131h-66v-65h-65v-66h-66v-65h-196v-66h-328v66h-197v65h-65v66h-66v65h-65v131h-66zM156 459h65v-131h66v-66h65v-65h66v-66h131v66h-131v65h-66v66h-65v131h-66v393 h-65v-393zM221 852h66v131h-66v-131zM287 524h65v-131h66v-65h65v-66h131v-65h197v65h131v66h66v65h65v131h66v262h-66v132h-65v65h-66v66h-131v65h-197v-65h-131v-66h-65v-65h-66v-132h-65v-262zM287 983h65v66h-65v-66zM352 1049h66v65h-66v-65zM418 1114h131v66h-131v-66 zM614 66h197v65h-197v-65zM614 1180h197v65h-197v-65zM877 131h131v66h-131v-66zM877 1114h131v-65h65v-66h66v-131h65v-393h66v393h-66v131h-65v66h-66v65h-65v66h-131v-66zM1008 197h65v65h-65v-65zM1073 262h66v66h-66v-66zM1139 328h65v131h-65v-131z" />
<glyph unicode="P" horiz-adv-x="1155" d="M117 0v1311h721v-66h65v-65h66v-66h65v-328h-65v-65h-66v-66h-65v-65h-525v-590h-196zM182 66h66v589h524v66h-524v459h524v65h-590v-1179zM313 786h459v66h66v197h-66v65h-459v-328zM903 852h66v197h-66v-197z" />
<glyph unicode="Q" horiz-adv-x="1429" d="M90 393v525h66v131h65v65h66v66h65v65h197v66h328v-66h196v-65h66v-66h65v-65h66v-131h65v-525h-65v-131h-66v-65h-65v-66h-66v-65h-196v-66h-66v-66h131v-196h-197v65h-65v66h-66v131h-65v66h-197v65h-65v66h-66v65h-65v131h-66zM156 459h65v-131h66v-66h65v-65h66v-66 h131v66h-131v65h-66v66h-65v131h-66v393h-65v-393zM221 852h66v131h-66v-131zM287 524h65v-131h66v-65h65v-66h131v-65h197v65h131v66h66v65h65v131h66v262h-66v132h-65v65h-66v66h-131v65h-197v-65h-131v-66h-65v-65h-66v-132h-65v-262zM287 983h65v66h-65v-66zM352 1049 h66v65h-66v-65zM418 1114h131v66h-131v-66zM614 66h66v-132h65v132h66v65h-197v-65zM614 1180h197v65h-197v-65zM811 -131v-66h66v66h-66zM877 131h131v66h-131v-66zM877 1114h131v-65h65v-66h66v-131h65v-393h66v393h-66v131h-65v66h-66v65h-65v66h-131v-66zM1008 197h65 v65h-65v-65zM1073 262h66v66h-66v-66zM1139 328h65v131h-65v-131z" />
<glyph unicode="R" horiz-adv-x="1263" d="M117 0v1311h721v-66h65v-65h66v-66h65v-328h-65v-65h-66v-66h-65v-65h-197v-66h66v-65h65v-66h66v-65h65v-66h66v-65h65v-66h66v-65h65v-66h-262v66h-65v65h-66v66h-65v65h-66v66h-66v65h-65v66h-66v65h-65v66h-66v-590h-196zM182 66h66v589h196v-65h66v-66h65v131h197 v66h-524v459h524v65h-590v-1179zM313 786h459v66h66v197h-66v65h-459v-328zM903 852h66v197h-66v-197z" />
<glyph unicode="S" horiz-adv-x="1054" d="M106 197v131h197v-66h66v-65h327v65h66v197h-66v65h-65v66h-197v65h-196v66h-66v65h-66v328h66v66h66v65h65v66h459v-66h65v-65h66v-131h-197v65h-327v-65h-66v-197h131v-66h197v-65h131v-66h131v-131h65v-327h-65v-66h-66v-65h-131v-66h-327v66h-131v65h-66v66h-66z M172 852h66v197h-66v-197zM303 721h66v65h-66v-65zM369 1180h327v65h-327v-65zM434 66h197v65h-197v-65zM500 655h65v66h-65v-66zM762 524h65v66h-65v-66zM827 262h66v197h-66v-197z" />
<glyph unicode="T" horiz-adv-x="1126" d="M0 1114v197h1114v-197h-459v-1114h-196v1114h-459zM66 1180h458v-1114h66v1114h459v65h-983v-65z" />
<glyph unicode="U" horiz-adv-x="1216" d="M113 262v1049h196v-918h66v-131h65v-65h328v65h66v131h65v918h197v-1049h-66v-131h-65v-65h-131v-66h-459v66h-131v65h-66v131h-65zM178 328h66v-131h65v-66h66v66h-66v131h-65v917h-66v-917zM440 66h328v65h-328v-65zM834 131h65v66h-65v-66zM899 197h66v131h-66v-131z M965 328h65v917h-65v-917z" />
<glyph unicode="V" horiz-adv-x="1265" d="M31 1180v131h196v-131h66v-197h65v-131h66v-197h65v-196h66v-131h66v131h65v196h66v197h65v131h66v197h65v131h197v-131h-66v-197h-65v-131h-66v-197h-65v-196h-66v-131h-65v-197h-66v-131h-197v131h-65v197h-66v131h-65v196h-66v197h-65v131h-66v197h-65zM162 1049h65 v65h-65v-65zM293 721h65v65h-65v-65zM358 524h66v66h-66v-66zM489 197h66v-131h66v131h65v65h-197v-65zM752 524h65v66h-65v-66zM817 721h66v65h-66v-65zM948 1049h66v65h-66v-65z" />
<glyph unicode="W" horiz-adv-x="1691" d="M63 1049v262h197v-262h66v-263h65v-196h66v-262h65v262h66v196h65v263h66v262h196v-262h66v-263h66v-196h65v-262h66v262h65v196h66v263h65v262h197v-262h-66v-197h-65v-262h-66v-262h-65v-197h-66v-131h-196v131h-66v197h-66v262h-65v262h-66v-262h-65v-262h-66v-197 h-65v-131h-197v131h-65v197h-66v262h-65v262h-66v197h-66zM129 1114h66v131h-66v-131zM195 918h65v65h-65v-65zM260 655h66v66h-66v-66zM326 393h65v131h-65v-131zM391 197h66v-131h65v131h66v65h-197v-65zM588 393h65v131h-65v-131zM653 655h66v66h-66v-66zM719 918h196v65 h-65v262h-66v-262h-65v-65zM915 655h66v66h-66v-66zM981 393h66v131h-66v-131zM1047 197h65v-131h66v131h65v65h-196v-65zM1243 393h66v131h-66v-131zM1309 655h65v66h-65v-66zM1374 918h66v65h-66v-65zM1440 1114h65v131h-65v-131z" />
<glyph unicode="X" horiz-adv-x="1380" d="M80 0v131h65v66h66v65h65v66h66v131h66v65h65v66h66v131h-66v65h-65v66h-66v131h-66v66h-65v65h-66v66h-65v131h262v-66h66v-131h65v-65h66v-66h65v-131h131v131h66v66h65v65h66v131h65v66h263v-131h-66v-66h-66v-65h-65v-66h-66v-131h-65v-66h-66v-65h-65v-131h65v-66 h66v-65h65v-131h66v-66h65v-65h66v-66h66v-131h-263v66h-65v131h-66v65h-65v66h-66v131h-131v-131h-65v-66h-66v-65h-65v-131h-66v-66h-262zM211 66h65v65h-65v-65zM211 1180h65v-66h66v66h-66v65h-65v-65zM276 131h66v66h-66v-66zM408 328h65v65h-65v-65zM408 918h65v-66 h66v66h-66v65h-65v-65zM473 393h66v66h-66v-66zM604 524h131v262h-131v-262zM801 393h65v-65h66v65h-66v66h-65v-66zM801 852h65v66h-65v-66zM866 918h66v65h-66v-65zM997 131h66v-65h65v65h-65v66h-66v-66zM997 1114h66v66h-66v-66zM1063 1180h65v65h-65v-65z" />
<glyph unicode="Y" horiz-adv-x="1230" d="M57 1245v66h262v-131h66v-131h66v-131h65v-132h66v-131h65v131h66v132h65v131h66v131h65v131h262v-66h-65v-131h-66v-131h-65v-131h-66v-131h-65v-131h-66v-131h-65v-459h-197v459h-65v131h-66v131h-66v131h-65v131h-66v131h-65v131h-66zM188 1180h66v65h-66v-65z M254 1049h65v65h-65v-65zM319 918h66v65h-66v-65zM385 786h66v66h-66v-66zM451 655h65v66h-65v-66zM516 524h66v-458h65v458h66v66h-197v-66zM713 655h65v66h-65v-66zM778 786h66v66h-66v-66zM844 918h65v65h-65v-65zM909 1049h66v65h-66v-65zM975 1180h65v65h-65v-65z" />
<glyph unicode="Z" horiz-adv-x="1191" d="M88 0v197h66v65h65v66h66v131h65v65h66v66h65v131h66v65h65v66h66v131h65v66h66v65h-721v197h983v-262h-65v-66h-66v-131h-66v-66h-65v-65h-66v-131h-65v-66h-66v-65h-65v-66h-66v-131h-65v-65h655v-197h-983zM154 66h852v65h-656v131h-65v-65h-66v-66h-65v-65zM154 1180 h720v-131h66v65h66v131h-852v-65zM350 328h66v65h-66v-65zM547 590h65v65h-65v-65zM612 655h66v66h-66v-66zM743 852h66v66h-66v-66zM809 918h65v65h-65v-65z" />
<glyph unicode="[" horiz-adv-x="645" d="M119 -197v1704h393v-131h-262v-1442h262v-131h-393z" />
<glyph unicode="\" horiz-adv-x="1017" d="M-16 1311v131h196v-131h66v-131h65v-131h66v-131h65v-132h66v-131h65v-131h66v-131h66v-131h65v-131h66v-131h65v-131h-196v131h-66v131h-66v131h-65v131h-66v131h-65v131h-66v131h-65v132h-66v131h-65v131h-66v131h-65z" />
<glyph unicode="]" horiz-adv-x="550" d="M25 -66h262v1442h-262v131h393v-1704h-393v131z" />
<glyph unicode="^" horiz-adv-x="819" d="M43 1049v65h66v66h65v65h66v66h262v-66h65v-65h66v-66h65v-65h-131v65h-131v66h-131v-66h-131v-65h-131z" />
<glyph unicode="_" horiz-adv-x="1505" d="M12 0h1377v-131h-1377v131z" />
<glyph unicode="`" horiz-adv-x="468" d="M20 1245v66h197v-66h66v-65h65v-66h-196v66h-66v65h-66z" />
<glyph unicode="a" horiz-adv-x="1042" d="M86 262v459h66v131h65v66h131v65h262v-65h66v-66h65v131h197v-983h-197v131h-65v-65h-66v-66h-262v66h-131v65h-65v131h-66zM152 328h65v327h-65v-327zM283 262h65v-65h262v65h66v66h65v327h-65v66h-66v65h-262v-65h-65v-459zM414 66h131v65h-131v-65zM414 852h131v66 h-131v-66zM741 197h66v-131h65v852h-65v-132h-66v-65h66v-459h-66v-65z" />
<glyph unicode="b" horiz-adv-x="1044" d="M117 0v1311h196v-459h66v66h65v65h263v-65h131v-66h65v-131h66v-459h-66v-131h-65v-65h-131v-66h-263v66h-65v65h-66v-131h-196zM182 66h66v131h65v65h-65v459h65v65h-65v459h-66v-1179zM313 328h66v-66h65v-65h263v65h65v459h-65v65h-263v-65h-65v-66h-66v-327zM379 131 h65v66h-65v-66zM379 786h65v66h-65v-66zM510 66h131v65h-131v-65zM510 852h131v66h-131v-66zM838 328h65v327h-65v-327z" />
<glyph unicode="c" horiz-adv-x="903" d="M86 262v459h66v131h65v66h131v65h262v-65h131v-66h66v-197h-131v66h-66v65h-262v-65h-65v-459h65v-65h262v65h66v66h131v-197h-66v-65h-131v-66h-262v66h-131v65h-65v131h-66zM152 328h65v327h-65v-327zM414 66h131v65h-131v-65zM414 852h131v66h-131v-66z" />
<glyph unicode="d" horiz-adv-x="1050" d="M78 262v459h65v131h66v66h131v65h262v-65h66v-66h65v459h197v-1311h-197v131h-65v-65h-66v-66h-262v66h-131v65h-66v131h-65zM143 328h66v327h-66v-327zM274 262h66v-65h262v65h66v66h65v327h-65v66h-66v65h-262v-65h-66v-459zM406 66h131v65h-131v-65zM406 852h131v66 h-131v-66zM733 197h66v-131h65v1179h-65v-459h-66v-65h66v-459h-66v-65z" />
<glyph unicode="e" horiz-adv-x="958" d="M86 262v459h66v131h65v66h131v65h262v-65h131v-66h66v-131h65v-262h-589v-197h65v-65h262v65h66v66h196v-131h-65v-66h-66v-65h-131v-66h-262v66h-131v65h-65v131h-66zM152 328h65v327h-65v-327zM283 590h393v131h-66v65h-262v-65h-65v-131zM414 66h131v65h-131v-65z M414 852h131v66h-131v-66zM741 524h66v131h-66v-131z" />
<glyph unicode="f" horiz-adv-x="792" d="M82 786v197h131v197h66v65h65v66h328v-131h-197v-66h-65v-131h196v-197h-196v-786h-197v786h-131zM147 852h132v-786h65v786h197v66h-197v196h-65v-196h-132v-66z" />
<glyph unicode="g" horiz-adv-x="1060" d="M92 -131h66v65h131v-65h65v-66h328v66h66v262h-66v-65h-66v-66h-262v66h-131v65h-65v131h-66v459h66v131h65v66h131v65h262v-65h66v-66h66v131h196v-1180h-65v-65h-66v-66h-131v-65h-328v65h-131v66h-65v65h-66v66zM158 328h65v327h-65v-327zM289 262h65v-65h262v65h66 v66h66v327h-66v66h-66v65h-262v-65h-65v-459zM420 66h131v65h-131v-65zM420 -262v-66h196v66h-196zM420 852h131v66h-131v-66zM616 131h66v66h-66v-66zM748 197h65v-328h66v1049h-66v-132h-65v-65h65v-459h-65v-65z" />
<glyph unicode="h" horiz-adv-x="1067" d="M117 0v1311h196v-459h66v66h65v65h263v-65h131v-66h65v-131h66v-721h-197v721h-65v65h-263v-65h-65v-66h-66v-655h-196zM182 66h66v655h65v65h-65v459h-66v-1179zM379 786h65v66h-65v-66zM510 852h131v66h-131v-66zM838 66h65v589h-65v-589z" />
<glyph unicode="i" d="M117 0v983h196v-983h-196zM117 1114v197h196v-197h-196zM182 66h66v852h-66v-852zM182 1180h66v65h-66v-65z" />
<glyph unicode="j" d="M117 -393v1376h196v-1376h-196zM117 1114v197h196v-197h-196zM182 -328h66v1246h-66v-1246zM182 1180h66v65h-66v-65z" />
<glyph unicode="k" horiz-adv-x="1067" d="M117 0v1311h196v-721h66v65h65v66h66v65h65v66h66v66h66v65h262v-65h-66v-66h-65v-66h-66v-65h-65v-66h-66v-65h-66v-66h-65v-65h65v-66h66v-65h66v-66h65v-65h66v-66h65v-65h66v-66h-262v66h-66v65h-66v66h-65v65h-66v66h-65v65h-66v-393h-196zM182 66h66v393h196v65 h-196v721h-66v-1179z" />
<glyph unicode="l" d="M117 0v1311h196v-1311h-196zM182 66h66v1179h-66v-1179z" />
<glyph unicode="m" horiz-adv-x="1452" d="M109 0v983h196v-131h66v66h65v65h197v-65h65v-66h131v66h66v65h262v-65h66v-66h65v-131h66v-721h-197v721h-65v65h-197v-65h-66v-721h-196v721h-66v65h-131v-65h-65v-66h-66v-655h-196zM174 66h66v655h65v65h-65v132h-66v-852zM502 852h65v66h-65v-66zM698 66h66v720h-66 v-720zM961 852h131v66h-131v-66zM1223 66h65v589h-65v-589z" />
<glyph unicode="n" horiz-adv-x="993" d="M109 0v983h196v-131h66v66h65v65h197v-65h131v-66h65v-131h66v-721h-197v721h-65v65h-197v-65h-65v-66h-66v-655h-196zM174 66h66v655h65v65h-65v132h-66v-852zM502 852h65v66h-65v-66zM764 66h65v589h-65v-589z" />
<glyph unicode="o" horiz-adv-x="956" d="M86 262v459h66v131h65v66h131v65h262v-65h131v-66h66v-131h65v-459h-65v-131h-66v-65h-131v-66h-262v66h-131v65h-65v131h-66zM152 328h65v327h-65v-327zM283 262h65v-65h262v65h66v459h-66v65h-262v-65h-65v-459zM414 66h131v65h-131v-65zM414 852h131v66h-131v-66z M741 328h66v327h-66v-327z" />
<glyph unicode="p" horiz-adv-x="1044" d="M109 -393v1376h196v-131h66v66h65v65h262v-65h131v-66h66v-131h66v-459h-66v-131h-66v-65h-131v-66h-262v66h-65v65h-66v-524h-196zM174 -328h66v525h65v65h-65v459h65v65h-65v132h-66v-1246zM305 328h66v-66h65v-65h262v65h66v459h-66v65h-262v-65h-65v-66h-66v-327z M502 66h131v65h-131v-65zM502 852h131v66h-131v-66zM829 328h66v327h-66v-327z" />
<glyph unicode="q" horiz-adv-x="1054" d="M86 262v459h66v131h65v66h131v65h262v-65h66v-66h65v131h197v-1376h-197v524h-65v-65h-66v-66h-262v66h-131v65h-65v131h-66zM152 328h65v327h-65v-327zM283 262h65v-65h262v65h66v66h65v327h-65v66h-66v65h-262v-65h-65v-459zM414 66h131v65h-131v-65zM414 852h131v66 h-131v-66zM741 197h66v-525h65v1246h-65v-132h-66v-65h66v-459h-66v-65z" />
<glyph unicode="r" horiz-adv-x="888" d="M109 0v983h196v-131h66v66h65v65h262v-65h66v-66h65v-131h-65v-66h-66v66h-65v65h-197v-65h-65v-66h-66v-655h-196zM174 66h66v655h65v65h-65v132h-66v-852zM502 852h131v66h-131v-66z" />
<glyph unicode="s" horiz-adv-x="841" d="M98 131v131h66v66h65v-66h66v-65h65v-66h132v66h65v131h-65v65h-66v66h-131v65h-66v66h-65v65h-66v197h66v66h65v65h394v-65h65v-197h-131v65h-65v66h-132v-66h-65v-65h65v-66h66v-65h131v-66h66v-65h65v-66h66v-262h-66v-65h-65v-66h-394v66h-65v65h-66zM164 721h65v65 h-65v-65zM623 197h65v131h-65v-131z" />
<glyph unicode="t" horiz-adv-x="739" d="M82 786v197h131v262h197v-262h262v-197h-262v-786h-197v786h-131zM147 852h132v-786h65v786h262v66h-262v262h-65v-262h-132v-66z" />
<glyph unicode="u" horiz-adv-x="997" d="M106 131v852h197v-721h66v-65h196v65h66v66h65v655h197v-983h-197v131h-65v-65h-66v-66h-327v66h-66v65h-66zM172 197h66v-66h65v-65h197v65h-197v66h-65v721h-66v-721zM696 197h66v-131h65v852h-65v-656h-66v-65z" />
<glyph unicode="v" horiz-adv-x="1007" d="M78 786v197h196v-131h66v-262h66v-197h65v-196h66v196h65v197h66v262h65v131h197v-197h-66v-196h-65v-262h-66v-197h-65v-131h-328v131h-66v197h-65v262h-66v196h-65zM143 852h66v66h-66v-66zM209 655h65v131h-65v-131zM274 393h66v131h-66v-131zM340 197h66v131h-66 v-131zM406 66h196v65h-196v-65zM602 197h66v131h-66v-131zM668 393h65v131h-65v-131zM733 655h66v131h-66v-131zM799 852h65v66h-65v-66z" />
<glyph unicode="w" horiz-adv-x="1400" d="M78 786v197h196v-197h66v-196h66v-197h65v-196h66v196h65v197h66v131h65v-131h66v-197h65v-196h66v196h65v197h66v196h65v197h197v-197h-66v-196h-65v-262h-66v-197h-65v-131h-262v131h-66v197h-65v-197h-66v-131h-262v131h-66v197h-65v262h-66v196h-65zM143 852h66v66 h-66v-66zM209 655h65v66h-65v-66zM274 393h66v131h-66v-131zM340 197h66v131h-66v-131zM406 66h131v65h-131v-65zM668 393h65v131h-65v-131zM864 66h131v65h-131v-65zM995 197h66v131h-66v-131zM1061 393h65v131h-65v-131zM1126 655h66v66h-66v-66zM1192 852h65v66h-65v-66z " />
<glyph unicode="x" horiz-adv-x="993" d="M104 0v197h66v65h66v66h65v65h66v66h65v65h-65v66h-66v65h-65v66h-66v65h-66v197h132v-65h65v-66h66v-66h65v-131h131v131h66v66h65v66h66v65h131v-197h-66v-65h-65v-66h-66v-65h-65v-66h-66v-65h66v-66h65v-65h66v-66h65v-65h66v-197h-131v66h-66v65h-65v66h-66v131 h-131v-131h-65v-66h-66v-65h-65v-66h-132zM367 328h65v65h-65v-65zM367 590v65h65v-65h-65zM563 328v65h66v-65h-66zM563 590h66v65h-66v-65z" />
<glyph unicode="y" horiz-adv-x="942" d="M78 786v197h196v-197h66v-196h66v-197h65v-65h66v262h65v196h66v197h196v-197h-65v-196h-66v-197h-65v-196h-66v-197h-65v-197h-66v-196h-197v196h66v197h66v131h-66v131h-66v131h-65v197h-66v196h-65zM143 852h66v66h-66v-66zM209 655h65v66h-65v-66zM274 459h66v65h-66 v-65zM340 -262v-66h66v66h-66zM406 -66v-65h65v65h-65zM406 197h65v-131h66v196h-131v-65zM602 459h66v65h-66v-65zM668 655h65v66h-65v-66zM733 852h66v66h-66v-66z" />
<glyph unicode="z" horiz-adv-x="1056" d="M102 0v197h66v65h65v66h66v65h66v66h65v65h66v66h65v65h66v66h65v65h-590v197h852v-197h-65v-65h-66v-66h-65v-65h-66v-66h-65v-65h-66v-66h-65v-65h-66v-66h-65v-65h589v-197h-852zM168 66h721v65h-590v66h-66v-66h-65v-65zM168 852h590v-66h65v66h66v66h-721v-66z" />
<glyph unicode="{" horiz-adv-x="731" d="M74 655v66h65v65h66v590h65v66h66v65h262v-65h-131v-66h-66v-524h-65v-66h-66v-65h-65v-66h65v-65h66v-66h65v-590h66v-65h131v-66h-262v66h-66v65h-65v656h-66v65h-65zM270 0h66v459h-66v-459zM270 918h66v393h-66v-393z" />
<glyph unicode="|" horiz-adv-x="382" d="M119 -197v1704h131v-1704h-131z" />
<glyph unicode="}" horiz-adv-x="579" d="M-20 -131h131v65h65v590h66v66h65v65h66v66h-66v65h-65v66h-66v524h-65v66h-131v65h262v-65h65v-66h66v-590h65v-65h66v-66h-66v-65h-65v-656h-66v-65h-65v-66h-262v66zM176 -66v-65h66v65h-66zM242 0h65v459h-65v-459zM242 918h65v393h-65v-393z" />
<glyph unicode="~" horiz-adv-x="935" d="M72 524v197h65v65h66v66h196v-66h131v-65h197v65h66v66h65v-197h-65v-65h-66v-66h-197v66h-131v65h-196v-65h-66v-66h-65zM268 721h66v65h-66v-65zM596 590h66v65h-66v-65z" />
<glyph unicode="&#xa1;" d="M117 0v918h196v-918h-196zM117 1114v197h196v-197h-196zM182 66h66v786h-66v-786zM182 1180h66v65h-66v-65z" />
<glyph unicode="&#xa2;" horiz-adv-x="956" d="M2 0h66v66h65v589h66v66h65v65h66v66h327v66h66v65h131v-65h-66v-66h-65v-66h65v-65h66v-131h-131v65h-66v66h-262v-66h-65v-65h-66v-328h66v-65h65v-66h262v66h66v65h131v-131h-66v-65h-65v-66h-393v66h-131v-66h-66v-66h-131v66zM199 131h65v66h-65v-66zM330 66v65h65 v-65h-65z" />
<glyph unicode="&#xa3;" horiz-adv-x="1236" d="M68 66v327h65v66h197v-66h65v262h-262v131h262v394h66v65h65v66h459v-66h66v-65h65v-131h-196v65h-66v66h-197v-66h-65v-328h393v-131h-393v-393h65v-65h66v-66h131v66h66v65h65v66h131v-197h-65v-65h-66v-66h-393v66h-66v65h-65v-65h-66v-66h-262v66h-65zM133 131h197 v131h-66v66h-131v-197zM133 131h197v131h-66v66h-131v-197zM395 197h131v917h-65v-786h-66v-131z" />
<glyph unicode="&#xa4;" horiz-adv-x="1247" d="M100 66v65h66v66h65v131h-65v393h65v131h-65v66h-66v65h66v66h65v-66h66v-65h131v65h393v-65h131v65h66v66h65v-66h66v-65h-66v-66h-65v-131h65v-393h-65v-131h65v-66h66v-65h-66v-66h-65v66h-66v65h-131v-65h-393v65h-131v-65h-66v-66h-65v66h-66zM297 328h65v-66h66 v-65h393v65h66v66h65v393h-65v65h-66v66h-393v-66h-66v-65h-65v-393z" />
<glyph unicode="&#xa5;" horiz-adv-x="1325" d="M90 459v131h328v131h-66v131h-262v131h131v131h-65v131h-66v66h262v-131h66v-131h65v-66h328v66h66v131h65v131h262v-66h-65v-131h-66v-131h131v-131h-262v-131h-65v-131h327v-131h-459v-459h-196v459h-459zM221 1180h66v65h-66v-65zM287 918h131v65h-66v131h-65v-196z M418 786h65v132h-65v-132zM483 524h131v-458h66v458h131v197h-66v-131h-196v131h-66v-197zM549 786h65v-131h66v131h65v66h-196v-66zM811 786h66v132h-66v-132zM877 918h131v196h-66v-131h-65v-65zM1008 1180h65v65h-65v-65z" />
<glyph unicode="&#xa6;" horiz-adv-x="382" d="M119 -131v1573h131v-1573h-131z" />
<glyph unicode="&#xa7;" horiz-adv-x="839" d="M92 393v262h66v66h131v131h-66v66h-65v262h65v65h66v66h262v-66h65v-131h66v-131h-131v131h-66v66h-131v-66h-65v-131h65v-65h66v-66h65v-66h66v-65h65v-66h66v-65h66v-262h-66v-66h-131v-65h65v-131h66v-263h-66v-65h-65v-66h-262v66h-66v131h-65v131h131v-131h65v-66 h131v66h66v131h-66v66h-65v65h-66v66h-65v65h-66v66h-65v65h-66zM223 459h66v-66h65v-65h197v65h65v131h-65v66h-66v65h-196v-65h-66v-131zM354 721h66v65h-66v-65zM420 197h65v65h-65v-65z" />
<glyph unicode="&#xa8;" horiz-adv-x="790" d="M68 1180v196h196v-196h-196zM133 1245h66v66h-66v-66zM461 1180v196h196v-196h-196zM526 1245h66v66h-66v-66z" />
<glyph unicode="&#xa9;" horiz-adv-x="1495" d="M90 459v459h66v-459h-66zM156 262v197h65v-131h66v-66h65v-65h131v-66h525v66h131v65h65v66h66v131h65v-197h-65v-65h-66v-66h-65v-65h-131v-66h-525v66h-131v65h-65v66h-66v65h-65zM156 918v196h65v66h66v65h65v66h131v65h525v-65h131v-66h65v-65h66v-66h65v-196h-65 v131h-66v65h-65v66h-131v65h-525v-65h-131v-66h-65v-65h-66v-131h-65zM352 459v459h66v65h65v66h66v65h393v-65h66v-66h65v-131h-131v66h-65v65h-263v-65h-65v-66h-66v-328h66v-65h65v-66h263v66h65v65h131v-131h-65v-65h-66v-66h-393v66h-66v65h-65v66h-66zM1335 459v459 h66v-459h-66z" />
<glyph unicode="&#xaa;" horiz-adv-x="751" d="M106 262v131h525v-131h-525zM106 590v196h66v66h66v66h262v131h-262v-66h-132v66h66v65h66v66h262v-66h65v-65h66v-590h-131v65h-66v-65h-196v65h-66v66h-66zM238 655h65v-65h131v65h66v131h-197v-65h-65v-66z" />
<glyph unicode="&#xab;" horiz-adv-x="1142" d="M39 590v65h65v66h66v65h66v66h65v66h66v65h65v66h66v65h65v-65h66v-66h-66v-65h-65v-66h-66v-66h-65v-65h-66v-66h-65v-65h65v-66h66v-65h65v-66h66v-65h65v-66h66v-65h-66v-66h-65v66h-66v65h-65v66h-66v65h-65v66h-66v65h-66v66h-65zM432 590v65h66v66h65v65h66v66h65 v66h66v65h65v66h66v65h65v-65h66v-66h-66v-65h-65v-66h-66v-66h-65v-65h-66v-66h-65v-65h65v-66h66v-65h65v-66h66v-65h65v-66h66v-65h-66v-66h-65v66h-66v65h-65v66h-66v65h-65v66h-66v65h-65v66h-66z" />
<glyph unicode="&#xac;" horiz-adv-x="1558" d="M18 590v131h1442v-721h-131v590h-1311z" />
<glyph unicode="&#xad;" horiz-adv-x="864" d="M72 459v196h721v-196h-721zM137 524h590v66h-590v-66z" />
<glyph unicode="&#xae;" horiz-adv-x="1495" d="M90 459v459h66v-459h-66zM156 262v197h65v-131h66v-66h65v-65h131v-66h525v66h131v65h65v66h66v131h65v-197h-65v-65h-66v-66h-65v-65h-131v-66h-525v66h-131v65h-65v66h-66v65h-65zM156 918v196h65v66h66v65h65v66h131v65h525v-65h131v-66h65v-65h66v-66h65v-196h-65 v131h-66v65h-65v66h-131v65h-525v-65h-131v-66h-65v-65h-66v-131h-65zM483 328v721h459v-66h66v-65h65v-197h-65v-66h-197v-65h66v-66h65v-65h66v-66h65v-65h-196v65h-66v66h-66v65h-65v66h-66v-262h-131zM614 721h328v197h-328v-197zM1335 459v459h66v-459h-66z" />
<glyph unicode="&#xaf;" horiz-adv-x="1015" d="M31 1245v131h852v-131h-852z" />
<glyph unicode="&#xb0;" horiz-adv-x="546" d="M33 1114v131h65v66h66v65h131v-65h65v-66h66v-131h-66v-65h-65v-66h-131v66h-66v65h-65zM164 1114h131v131h-131v-131zM164 1114h131v131h-131v-131z" />
<glyph unicode="&#xb1;" horiz-adv-x="1163" d="M82 0v197h983v-197h-983zM82 655v197h393v393h197v-393h393v-197h-393v-393h-197v393h-393zM147 66h852v65h-852v-65zM147 721h394v-393h65v393h393v65h-393v394h-65v-394h-394v-65z" />
<glyph unicode="&#xb2;" horiz-adv-x="524" d="M76 918v131h65v65h66v66h65v131h-131v-66h-65v131h262v-65h65v-131h-65v-66h-66v-65h-65v-66h131v66h65v-131h-327z" />
<glyph unicode="&#xb3;" horiz-adv-x="516" d="M68 983v66h65v-66h-65zM68 1245v66h65v-66h-65zM133 918v65h131v131h-65v66h65v131h-131v65h197v-65h65v-131h-65v-66h65v-131h-65v-65h-197z" />
<glyph unicode="&#xb4;" horiz-adv-x="495" d="M35 1180v65h65v66h66v65h196v-65h-65v-66h-66v-65h-196z" />
<glyph unicode="&#xb5;" horiz-adv-x="999" d="M109 -393v1376h196v-721h66v-65h196v65h66v66h65v655h197v-983h-197v131h-65v-65h-66v-66h-196v66h-66v-459h-196zM174 -328h66v459h65v66h-65v721h-66v-1246zM436 66h66v65h-66v-65zM698 197h66v-131h65v852h-65v-656h-66v-65z" />
<glyph unicode="&#xb6;" horiz-adv-x="1060" d="M76 786v394h65v65h66v66h131v65h590v-1704h-131v1639h-197v-1639h-131v918h-131v65h-131v66h-66v65h-65zM141 852h66v-66h65v-65h131v-66h132v656h-132v-66h-131v-65h-65v-66h-66v-262z" />
<glyph unicode="&#xb7;" horiz-adv-x="385" d="M68 918v196h196v-196h-196zM133 983h66v66h-66v-66z" />
<glyph unicode="&#xb8;" horiz-adv-x="471" d="M-39 -197h66v-65h131v131h-131v131h65v-66h197v-65h65v-197h-65v-65h-262v65h-66v131zM223 -197v-65h66v65h-66z" />
<glyph unicode="&#xb9;" horiz-adv-x="411" d="M16 1180v65h66v-65h-66zM82 1245v66h65v65h132v-393h-132v262h-65z" />
<glyph unicode="&#xba;" horiz-adv-x="817" d="M106 262v131h590v-131h-590zM106 590v459h66v65h66v66h327v-66h66v-65h65v-459h-65v-66h-66v-65h-327v65h-66v66h-66zM238 655h65v-65h197v65h65v328h-65v66h-197v-66h-65v-328z" />
<glyph unicode="&#xbb;" horiz-adv-x="1142" d="M100 197v65h66v66h65v65h66v66h65v65h66v66h66v65h-66v66h-66v65h-65v66h-66v66h-65v65h-66v66h66v65h65v-65h66v-66h65v-65h66v-66h66v-66h65v-65h66v-66h65v-65h-65v-66h-66v-65h-65v-66h-66v-65h-66v-66h-65v-65h-66v-66h-65v66h-66zM494 197v65h65v66h66v65h65v66h66 v65h65v66h66v65h-66v66h-65v65h-66v66h-65v66h-66v65h-65v66h65v65h66v-65h65v-66h66v-65h65v-66h66v-66h65v-65h66v-66h65v-65h-65v-66h-66v-65h-65v-66h-66v-65h-65v-66h-66v-65h-65v-66h-66v66h-65z" />
<glyph unicode="&#xbc;" horiz-adv-x="1492" d="M94 0v66h66v65h65v66h66v65h65v66h66v65h65v66h66v65h65v66h66v65h66v66h65v65h66v66h65v66h66v65h65v66h66v65h65v66h131v-66h-65v-65h-66v-66h-65v-65h-66v-66h-65v-66h-66v-65h-65v-66h-66v-65h-65v-66h-66v-65h-66v-66h-65v-65h-66v-66h-65v-65h-66v-66h-65v-65h-66 v-66h-131zM94 983v66h66v65h65v66h131v-525h-131v328h-131zM881 131v197h65v65h66v66h65v65h66v66h65v65h131v-393h66v-131h-66v-131h-131v131h-327zM1012 262h196v197h-65v-66h-66v-65h-65v-66z" />
<glyph unicode="&#xbd;" horiz-adv-x="1568" d="M94 0v66h66v65h65v66h66v65h65v66h66v65h65v66h66v65h65v66h66v65h66v66h65v65h66v66h65v66h66v65h65v66h66v65h65v66h131v-66h-65v-65h-66v-66h-65v-65h-66v-66h-65v-66h-66v-65h-65v-66h-66v-65h-65v-66h-66v-65h-66v-66h-65v-65h-66v-66h-65v-65h-66v-66h-65v-65h-66 v-66h-131zM94 983v66h66v65h65v66h131v-525h-131v328h-131zM1012 0v131h65v66h66v65h65v66h66v65h65v131h-196v-65h-131v65h65v66h66v65h262v-65h65v-197h-65v-65h-66v-66h-65v-65h-66v-66h262v-131h-458z" />
<glyph unicode="&#xbe;" horiz-adv-x="1509" d="M111 0v66h65v65h66v66h65v65h66v66h65v65h66v66h65v65h66v66h65v65h66v66h65v65h66v66h66v66h65v65h66v66h65v65h66v66h131v-66h-66v-65h-65v-66h-66v-65h-65v-66h-66v-66h-65v-65h-66v-66h-66v-65h-65v-66h-66v-65h-65v-66h-66v-65h-65v-66h-66v-65h-65v-66h-66v-65h-65 v-66h-131zM111 655v131h131v-131h131v197h-131v66h131v196h-131v-131h-131v131h65v66h262v-66h66v-196h-66v-66h66v-197h-66v-65h-262v65h-65zM897 131v197h66v65h65v66h66v65h65v66h66v65h131v-393h65v-131h-65v-131h-131v131h-328zM1028 262h197v197h-66v-66h-65v-65h-66 v-66z" />
<glyph unicode="&#xbf;" horiz-adv-x="1026" d="M61 197v327h66v66h66v65h65v66h66v65h65v132h197v-197h-66v-66h-65v-65h-66v-66h-65v-65h-66v-197h66v-65h327v65h66v66h65v131h197v-131h-66v-131h-65v-66h-66v-65h-65v-66h-393v66h-131v65h-66v66h-66zM127 262h66v197h-66v-197zM389 66h262v65h-262v-65zM389 1114v197 h197v-197h-197zM455 786h65v66h-65v-66zM455 1180h65v65h-65v-65z" />
<glyph unicode="&#xc0;" horiz-adv-x="1380" d="M37 0v197h65v131h66v196h65v131h66v131h66v132h65v131h66v131h65v131h197v-131h65v-131h66v-131h65v-132h66v-131h65v-131h66v-196h66v-131h65v-197h-197v131h-65v131h-66v131h-589v-131h-66v-131h-66v-131h-196zM102 66h66v65h-66v-65zM168 197h65v65h-65v-65zM233 328 h66v131h-66v-131zM299 459h721v-131h65v131h-65v131h-66v-66h-589v66h-66v-131zM430 590h459v65h-66v131h-65v132h-66v131h-65v-131h-66v-132h-65v-131h-66v-65zM526 1573v65h197v-65h65v-66h66v-65h-197v65h-65v66h-66zM627 1114h65v131h-65v-131zM1085 197h66v65h-66v-65z M1151 66h66v65h-66v-65z" />
<glyph unicode="&#xc1;" horiz-adv-x="1380" d="M37 0v197h65v131h66v196h65v131h66v131h66v132h65v131h66v131h65v131h197v-131h65v-131h66v-131h65v-132h66v-131h65v-131h66v-196h66v-131h65v-197h-197v131h-65v131h-66v131h-589v-131h-66v-131h-66v-131h-196zM102 66h66v65h-66v-65zM168 197h65v65h-65v-65zM233 328 h66v131h-66v-131zM299 459h721v-131h65v131h-65v131h-66v-66h-589v66h-66v-131zM430 590h459v65h-66v131h-65v132h-66v131h-65v-131h-66v-132h-65v-131h-66v-65zM526 1507v66h66v65h65v66h197v-66h-66v-65h-65v-66h-197zM627 1114h65v131h-65v-131zM1085 197h66v65h-66v-65z M1151 66h66v65h-66v-65z" />
<glyph unicode="&#xc2;" horiz-adv-x="1380" d="M37 0v197h65v131h66v196h65v131h66v131h66v132h65v131h66v131h65v131h197v-131h65v-131h66v-131h65v-132h66v-131h65v-131h66v-196h66v-131h65v-197h-197v131h-65v131h-66v131h-589v-131h-66v-131h-66v-131h-196zM102 66h66v65h-66v-65zM168 197h65v65h-65v-65zM233 328 h66v131h-66v-131zM299 459h721v-131h65v131h-65v131h-66v-66h-589v66h-66v-131zM362 1376v66h66v65h66v66h65v65h262v-65h66v-66h65v-65h66v-66h-131v66h-131v65h-131v-65h-131v-66h-132zM430 590h459v65h-66v131h-65v132h-66v131h-65v-131h-66v-132h-65v-131h-66v-65z M627 1114h65v131h-65v-131zM1085 197h66v65h-66v-65zM1151 66h66v65h-66v-65z" />
<glyph unicode="&#xc3;" horiz-adv-x="1380" d="M37 0v197h65v131h66v196h65v131h66v131h66v132h65v131h66v131h65v131h197v-131h65v-131h66v-131h65v-132h66v-131h65v-131h66v-196h66v-131h65v-197h-197v131h-65v131h-66v131h-589v-131h-66v-131h-66v-131h-196zM102 66h66v65h-66v-65zM168 197h65v65h-65v-65zM233 328 h66v131h-66v-131zM297 1505v197h65v65h66v66h197v-66h131v-65h196v65h66v66h65v-197h-65v-65h-66v-66h-196v66h-131v65h-197v-65h-66v-66h-65zM299 459h721v-131h65v131h-65v131h-66v-66h-589v66h-66v-131zM430 590h459v65h-66v131h-65v132h-66v131h-65v-131h-66v-132h-65 v-131h-66v-65zM494 1702h65v65h-65v-65zM627 1114h65v131h-65v-131zM821 1571h66v65h-66v-65zM1085 197h66v65h-66v-65zM1151 66h66v65h-66v-65z" />
<glyph unicode="&#xc4;" horiz-adv-x="1380" d="M37 0v197h65v131h66v196h65v131h66v131h66v132h65v131h66v131h65v131h197v-131h65v-131h66v-131h65v-132h66v-131h65v-131h66v-196h66v-131h65v-197h-197v131h-65v131h-66v131h-589v-131h-66v-131h-66v-131h-196zM102 66h66v65h-66v-65zM168 197h65v65h-65v-65zM233 328 h66v131h-66v-131zM299 459h721v-131h65v131h-65v131h-66v-66h-589v66h-66v-131zM395 1507v197h197v-197h-197zM430 590h459v65h-66v131h-65v132h-66v131h-65v-131h-66v-132h-65v-131h-66v-65zM461 1573h65v65h-65v-65zM627 1114h65v131h-65v-131zM788 1507v197h197v-197 h-197zM854 1573h66v65h-66v-65zM1085 197h66v65h-66v-65zM1151 66h66v65h-66v-65z" />
<glyph unicode="&#xc5;" horiz-adv-x="1380" d="M37 0v197h65v131h66v196h65v131h66v131h66v132h65v131h66v131h65v131h197v-131h65v-131h66v-131h65v-132h66v-131h65v-131h66v-196h66v-131h65v-197h-197v131h-65v131h-66v131h-589v-131h-66v-131h-66v-131h-196zM102 66h66v65h-66v-65zM168 197h65v65h-65v-65zM233 328 h66v131h-66v-131zM299 459h721v-131h65v131h-65v131h-66v-66h-589v66h-66v-131zM430 590h459v65h-66v131h-65v132h-66v131h-65v-131h-66v-132h-65v-131h-66v-65zM627 1114h65v131h-65v-131zM1085 197h66v65h-66v-65zM1151 66h66v65h-66v-65z" />
<glyph unicode="&#xc6;" horiz-adv-x="1970" d="M37 0v197h65v131h66v196h65v131h66v131h66v132h65v131h66v131h65v131h852v-197h-590v-65h66v-131h65v-132h656v-196h-525v-66h66v-196h66v-131h655v-197h-787v131h-65v131h-66v131h-589v-131h-66v-131h-66v-131h-196zM102 66h66v65h-66v-65zM168 197h65v65h-65v-65z M233 328h66v131h-66v-131zM299 459h721v-131h65v131h-65v196h524v66h-590v-197h-589v66h-66v-131zM430 590h459v65h-66v131h-65v132h-66v65h-65v-65h-66v-132h-65v-131h-66v-65zM561 1049h197v131h590v65h-721v-131h-66v-65zM1085 197h66v65h-66v-65zM1151 66h655v65h-655 v-65z" />
<glyph unicode="&#xc7;" horiz-adv-x="1353" d="M90 393v525h66v131h65v65h66v66h65v65h197v66h328v-66h196v-65h66v-131h65v-66h66v-65h-262v65h-66v66h-131v65h-197v-65h-131v-66h-65v-65h-66v-132h-65v-262h65v-131h66v-65h65v-66h131v-65h197v65h131v66h66v65h262v-65h-66v-66h-65v-131h-66v-65h-196v-66h-328v66 h-197v65h-65v66h-66v65h-65v131h-66zM156 459h65v-131h66v-66h65v-65h66v-66h131v66h-131v65h-66v66h-65v131h-66v393h-65v-393zM221 852h66v131h-66v-131zM287 983h65v66h-65v-66zM352 1049h66v65h-66v-65zM418 1114h131v66h-131v-66zM479 -197h66v-65h131v131h-131v131h65 v-66h197v-65h65v-197h-65v-65h-262v65h-66v131zM614 66h197v65h-197v-65zM614 1180h197v65h-197v-65zM741 -197v-65h66v65h-66zM877 131h131v66h-131v-66zM877 1114h131v-65h65v65h-65v66h-131v-66zM1008 197h65v65h-65v-65z" />
<glyph unicode="&#xc8;" horiz-adv-x="1024" d="M117 0v1311h786v-197h-590v-328h590v-196h-590v-393h590v-197h-786zM182 66h656v65h-590v524h590v66h-590v459h590v65h-656v-1179zM348 1573v65h197v-65h65v-66h66v-65h-197v65h-65v66h-66z" />
<glyph unicode="&#xc9;" horiz-adv-x="1024" d="M117 0v1311h786v-197h-590v-328h590v-196h-590v-393h590v-197h-786zM182 66h656v65h-590v524h590v66h-590v459h590v65h-656v-1179zM348 1507v66h66v65h65v66h197v-66h-66v-65h-65v-66h-197z" />
<glyph unicode="&#xca;" horiz-adv-x="1024" d="M117 0v1311h786v-197h-590v-328h590v-196h-590v-393h590v-197h-786zM182 66h656v65h-590v524h590v66h-590v459h590v65h-656v-1179zM184 1376v66h66v65h65v66h66v65h262v-65h66v-66h65v-65h66v-66h-131v66h-131v65h-132v-65h-131v-66h-131z" />
<glyph unicode="&#xcb;" horiz-adv-x="1024" d="M117 0v1311h786v-197h-590v-328h590v-196h-590v-393h590v-197h-786zM182 66h656v65h-590v524h590v66h-590v459h590v65h-656v-1179zM217 1507v197h197v-197h-197zM283 1573h65v65h-65v-65zM610 1507v197h197v-197h-197zM676 1573h65v65h-65v-65z" />
<glyph unicode="&#xcc;" d="M53 1573v65h197v-65h65v-66h66v-65h-197v65h-65v66h-66zM117 0v1311h196v-1311h-196zM182 66h66v1179h-66v-1179z" />
<glyph unicode="&#xcd;" d="M53 1507v66h66v65h65v66h197v-66h-66v-65h-65v-66h-197zM117 0v1311h196v-1311h-196zM182 66h66v1179h-66v-1179z" />
<glyph unicode="&#xce;" d="M-111 1376v66h66v65h65v66h66v65h262v-65h66v-66h65v-65h66v-66h-131v66h-131v65h-131v-65h-132v-66h-131zM117 0v1311h196v-1311h-196zM182 66h66v1179h-66v-1179z" />
<glyph unicode="&#xcf;" d="M-78 1507v197h197v-197h-197zM-12 1573h65v65h-65v-65zM117 0v1311h196v-1311h-196zM182 66h66v1179h-66v-1179zM315 1507v197h197v-197h-197zM381 1573h65v65h-65v-65z" />
<glyph unicode="&#xd0;" horiz-adv-x="1347" d="M74 590v131h131v590h590v-66h196v-65h66v-66h65v-65h66v-131h65v-525h-65v-131h-66v-65h-65v-66h-66v-65h-196v-66h-590v590h-131zM270 66h459v65h-393v524v525h393v65h-459v-1179zM401 197h328v65h131v66h66v65h65v131h66v262h-66v132h-65v65h-66v66h-131v65h-328v-393 h263v-131h-263v-393zM795 131h131v66h-131v-66zM795 1114h131v-65h65v-66h66v-131h65v-393h66v393h-66v131h-65v66h-66v65h-65v66h-131v-66zM926 197h65v65h-65v-65zM991 262h66v66h-66v-66zM1057 328h65v131h-65v-131z" />
<glyph unicode="&#xd1;" horiz-adv-x="1286" d="M117 0v1311h327v-131h66v-131h65v-131h66v-132h66v-131h65v-131h66v-131h65v-131h66v1049h196v-1311h-327v131h-66v131h-65v131h-66v131h-66v131h-65v131h-66v132h-65v131h-66v-1049h-196zM182 66h66v1048h131v131h-197v-1179zM250 1505v197h65v65h66v66h197v-66h131v-65 h196v65h66v66h65v-197h-65v-65h-66v-66h-196v66h-131v65h-197v-65h-66v-66h-65zM446 1702h66v65h-66v-65zM774 1571h66v65h-66v-65zM903 66h197v1179h-66v-1048h-131v-131z" />
<glyph unicode="&#xd2;" horiz-adv-x="1429" d="M90 393v525h66v131h65v65h66v66h65v65h197v66h328v-66h196v-65h66v-66h65v-65h66v-131h65v-525h-65v-131h-66v-65h-65v-66h-66v-65h-196v-66h-328v66h-197v65h-65v66h-66v65h-65v131h-66zM156 459h65v-131h66v-66h65v-65h66v-66h131v66h-131v65h-66v66h-65v131h-66v393 h-65v-393zM221 852h66v131h-66v-131zM287 524h65v-131h66v-65h65v-66h131v-65h197v65h131v66h66v65h65v131h66v262h-66v132h-65v65h-66v66h-131v65h-197v-65h-131v-66h-65v-65h-66v-132h-65v-262zM287 983h65v66h-65v-66zM352 1049h66v65h-66v-65zM418 1114h131v66h-131v-66 zM551 1573v65h197v-65h65v-66h66v-65h-197v65h-66v66h-65zM614 66h197v65h-197v-65zM614 1180h197v65h-197v-65zM877 131h131v66h-131v-66zM877 1114h131v-65h65v-66h66v-131h65v-393h66v393h-66v131h-65v66h-66v65h-65v66h-131v-66zM1008 197h65v65h-65v-65zM1073 262h66 v66h-66v-66zM1139 328h65v131h-65v-131z" />
<glyph unicode="&#xd3;" horiz-adv-x="1429" d="M90 393v525h66v131h65v65h66v66h65v65h197v66h328v-66h196v-65h66v-66h65v-65h66v-131h65v-525h-65v-131h-66v-65h-65v-66h-66v-65h-196v-66h-328v66h-197v65h-65v66h-66v65h-65v131h-66zM156 459h65v-131h66v-66h65v-65h66v-66h131v66h-131v65h-66v66h-65v131h-66v393 h-65v-393zM221 852h66v131h-66v-131zM287 524h65v-131h66v-65h65v-66h131v-65h197v65h131v66h66v65h65v131h66v262h-66v132h-65v65h-66v66h-131v65h-197v-65h-131v-66h-65v-65h-66v-132h-65v-262zM287 983h65v66h-65v-66zM352 1049h66v65h-66v-65zM418 1114h131v66h-131v-66 zM551 1507v66h65v65h66v66h197v-66h-66v-65h-65v-66h-197zM614 66h197v65h-197v-65zM614 1180h197v65h-197v-65zM877 131h131v66h-131v-66zM877 1114h131v-65h65v-66h66v-131h65v-393h66v393h-66v131h-65v66h-66v65h-65v66h-131v-66zM1008 197h65v65h-65v-65zM1073 262h66 v66h-66v-66zM1139 328h65v131h-65v-131z" />
<glyph unicode="&#xd4;" horiz-adv-x="1429" d="M90 393v525h66v131h65v65h66v66h65v65h197v66h328v-66h196v-65h66v-66h65v-65h66v-131h65v-525h-65v-131h-66v-65h-65v-66h-66v-65h-196v-66h-328v66h-197v65h-65v66h-66v65h-65v131h-66zM156 459h65v-131h66v-66h65v-65h66v-66h131v66h-131v65h-66v66h-65v131h-66v393 h-65v-393zM221 852h66v131h-66v-131zM287 524h65v-131h66v-65h65v-66h131v-65h197v65h131v66h66v65h65v131h66v262h-66v132h-65v65h-66v66h-131v65h-197v-65h-131v-66h-65v-65h-66v-132h-65v-262zM287 983h65v66h-65v-66zM352 1049h66v65h-66v-65zM387 1376v66h66v65h65v66 h66v65h262v-65h65v-66h66v-65h65v-66h-131v66h-131v65h-131v-65h-131v-66h-131zM418 1114h131v66h-131v-66zM614 66h197v65h-197v-65zM614 1180h197v65h-197v-65zM877 131h131v66h-131v-66zM877 1114h131v-65h65v-66h66v-131h65v-393h66v393h-66v131h-65v66h-66v65h-65v66 h-131v-66zM1008 197h65v65h-65v-65zM1073 262h66v66h-66v-66zM1139 328h65v131h-65v-131z" />
<glyph unicode="&#xd5;" horiz-adv-x="1429" d="M90 393v525h66v131h65v65h66v66h65v65h197v66h328v-66h196v-65h66v-66h65v-65h66v-131h65v-525h-65v-131h-66v-65h-65v-66h-66v-65h-196v-66h-328v66h-197v65h-65v66h-66v65h-65v131h-66zM156 459h65v-131h66v-66h65v-65h66v-66h131v66h-131v65h-66v66h-65v131h-66v393 h-65v-393zM221 852h66v131h-66v-131zM287 524h65v-131h66v-65h65v-66h131v-65h197v65h131v66h66v65h65v131h66v262h-66v132h-65v65h-66v66h-131v65h-197v-65h-131v-66h-65v-65h-66v-132h-65v-262zM287 983h65v66h-65v-66zM322 1505v197h65v65h66v66h196v-66h131v-65h197v65 h65v66h66v-197h-66v-65h-65v-66h-197v66h-131v65h-196v-65h-66v-66h-65zM352 1049h66v65h-66v-65zM418 1114h131v66h-131v-66zM518 1702h66v65h-66v-65zM614 66h197v65h-197v-65zM614 1180h197v65h-197v-65zM846 1571h65v65h-65v-65zM877 131h131v66h-131v-66zM877 1114h131 v-65h65v-66h66v-131h65v-393h66v393h-66v131h-65v66h-66v65h-65v66h-131v-66zM1008 197h65v65h-65v-65zM1073 262h66v66h-66v-66zM1139 328h65v131h-65v-131z" />
<glyph unicode="&#xd6;" horiz-adv-x="1429" d="M90 393v525h66v131h65v65h66v66h65v65h197v66h328v-66h196v-65h66v-66h65v-65h66v-131h65v-525h-65v-131h-66v-65h-65v-66h-66v-65h-196v-66h-328v66h-197v65h-65v66h-66v65h-65v131h-66zM156 459h65v-131h66v-66h65v-65h66v-66h131v66h-131v65h-66v66h-65v131h-66v393 h-65v-393zM221 852h66v131h-66v-131zM287 524h65v-131h66v-65h65v-66h131v-65h197v65h131v66h66v65h65v131h66v262h-66v132h-65v65h-66v66h-131v65h-197v-65h-131v-66h-65v-65h-66v-132h-65v-262zM287 983h65v66h-65v-66zM352 1049h66v65h-66v-65zM418 1114h131v66h-131v-66 zM420 1507v197h196v-197h-196zM485 1573h66v65h-66v-65zM614 66h197v65h-197v-65zM614 1180h197v65h-197v-65zM813 1507v197h197v-197h-197zM877 131h131v66h-131v-66zM877 1114h131v-65h65v-66h66v-131h65v-393h66v393h-66v131h-65v66h-66v65h-65v66h-131v-66zM879 1573h65 v65h-65v-65zM1008 197h65v65h-65v-65zM1073 262h66v66h-66v-66zM1139 328h65v131h-65v-131z" />
<glyph unicode="&#xd7;" horiz-adv-x="983" d="M98 131v66h66v65h65v66h66v65h65v66h66v65h-66v66h-65v65h-66v66h-65v65h-66v66h131v-66h66v-65h65v-66h66v-65h131v65h66v66h65v65h66v66h131v-66h-66v-65h-65v-66h-66v-65h-65v-66h-66v-65h66v-66h65v-65h66v-66h65v-65h66v-66h-131v66h-66v65h-65v66h-66v65h-131v-65 h-66v-66h-65v-65h-66v-66h-131zM98 131l66 66v65h65v66h66v65h65v66h263v-66h65v-65h66v-66h65v-65h66l-66 -66h-65v66h-66v65h-65v66h-66v65h-131v-65h-66v-66h-65v-65h-66v-66h-131zM98 131v66h66v65h65v66h66v65h65v66h66v65h-66v66h-65v65h-66v66h-65v65h-66v66h131v-66 h66v-65h65v-66h66v-65h131v65h66v66h65v65h66v66h131v-66h-66v-65h-65v-66h-66v-65h-65v-66h-66v-65h66v-66h65v-65h66v-66h65v-65h66v-66h-131v66h-66v65h-65v66h-66v65h-131v-65h-66v-66h-65v-65h-66v-66h-131zM98 786l66 66h65v-66h66v-65h65v-66h66v-65h66v-66h-132v66 h-65v65h-66v66h-65v65h-66zM492 524v66h65v65h66v66h65v65h66v66h131l-66 -66v-65h-65v-66h-66v-65h-65v-66h-131z" />
<glyph unicode="&#xd8;" horiz-adv-x="1538" d="M106 0v131h66v66h66v65h-66v131h-66v525h66v131h66v65h65v66h66v65h196v66h328v-66h197v-65h131v65h65v66h131v-131h-65v-66h-66v-196h66v-525h-66v-131h-65v-65h-66v-66h-65v-65h-197v-66h-328v66h-196v65h-66v-65h-65v-66h-132zM172 459h66v-131h65v-131h131v-66h131 v66h-131v131h-131v131h-65v393h-66v-393zM238 852h65v131h-65v-131zM303 524h66v-131h65v66h66v65h65v66h66v65h65v66h66v65h65v66h66v66h65v131h-131v65h-196v-65h-131v-66h-66v-65h-65v-132h-66v-262zM303 983h66v66h-66v-66zM369 1049h65v65h-65v-65zM434 1114h131v66 h-131v-66zM500 262h131v-65h196v65h131v66h66v65h66v131h65v262h-65v66h-66v-66h-66v-65h-65v-66h-66v-65h-65v-66h-66v-65h-65v-66h-66v-65h-65v-66zM631 66h196v65h-196v-65zM631 1180h196v65h-196v-65zM893 131h131v66h-131v-66zM893 1114h131v-196h131v-66h66v-393h65 v393h-65v262h-197v66h-131v-66zM1024 197h66v65h-66v-65zM1090 262h65v66h-65v-66zM1155 328h66v131h-66v-131z" />
<glyph unicode="&#xd9;" horiz-adv-x="1216" d="M113 262v1049h196v-918h66v-131h65v-65h328v65h66v131h65v918h197v-1049h-66v-131h-65v-65h-131v-66h-459v66h-131v65h-66v131h-65zM178 328h66v-131h65v-66h66v66h-66v131h-65v917h-66v-917zM440 66h328v65h-328v-65zM444 1573v65h197v-65h66v-66h65v-65h-197v65h-65v66 h-66zM834 131h65v66h-65v-66zM899 197h66v131h-66v-131zM965 328h65v917h-65v-917z" />
<glyph unicode="&#xda;" horiz-adv-x="1216" d="M113 262v1049h196v-918h66v-131h65v-65h328v65h66v131h65v918h197v-1049h-66v-131h-65v-65h-131v-66h-459v66h-131v65h-66v131h-65zM178 328h66v-131h65v-66h66v66h-66v131h-65v917h-66v-917zM440 66h328v65h-328v-65zM444 1507v66h66v65h65v66h197v-66h-65v-65h-66v-66 h-197zM834 131h65v66h-65v-66zM899 197h66v131h-66v-131zM965 328h65v917h-65v-917z" />
<glyph unicode="&#xdb;" horiz-adv-x="1216" d="M113 262v1049h196v-918h66v-131h65v-65h328v65h66v131h65v918h197v-1049h-66v-131h-65v-65h-131v-66h-459v66h-131v65h-66v131h-65zM178 328h66v-131h65v-66h66v66h-66v131h-65v917h-66v-917zM281 1376v66h65v65h66v66h65v65h262v-65h66v-66h65v-65h66v-66h-131v66h-131 v65h-131v-65h-131v-66h-131zM440 66h328v65h-328v-65zM834 131h65v66h-65v-66zM899 197h66v131h-66v-131zM965 328h65v917h-65v-917z" />
<glyph unicode="&#xdc;" horiz-adv-x="1216" d="M113 262v1049h196v-918h66v-131h65v-65h328v65h66v131h65v918h197v-1049h-66v-131h-65v-65h-131v-66h-459v66h-131v65h-66v131h-65zM178 328h66v-131h65v-66h66v66h-66v131h-65v917h-66v-917zM313 1507v197h197v-197h-197zM379 1573h65v65h-65v-65zM440 66h328v65h-328 v-65zM707 1507v197h196v-197h-196zM772 1573h66v65h-66v-65zM834 131h65v66h-65v-66zM899 197h66v131h-66v-131zM965 328h65v917h-65v-917z" />
<glyph unicode="&#xdd;" horiz-adv-x="1230" d="M57 1245v66h262v-131h66v-131h66v-131h65v-132h66v-131h65v131h66v132h65v131h66v131h65v131h262v-66h-65v-131h-66v-131h-65v-131h-66v-131h-65v-131h-66v-131h-65v-459h-197v459h-65v131h-66v131h-66v131h-65v131h-66v131h-65v131h-66zM188 1180h66v65h-66v-65z M254 1049h65v65h-65v-65zM319 918h66v65h-66v-65zM385 786h66v66h-66v-66zM451 655h65v66h-65v-66zM451 1507v66h65v65h66v66h196v-66h-65v-65h-66v-66h-196zM516 524h66v-458h65v458h66v66h-197v-66zM713 655h65v66h-65v-66zM778 786h66v66h-66v-66zM844 918h65v65h-65v-65 zM909 1049h66v65h-66v-65zM975 1180h65v65h-65v-65z" />
<glyph unicode="&#xde;" horiz-adv-x="1093" d="M117 0v1311h196v-328h525v-65h65v-66h66v-66h65v-327h-65v-66h-66v-65h-65v-66h-525v-262h-196zM182 66h66v262h524v65h-524v459h524v66h-524v327h-66v-1179zM313 459h459v65h66v197h-66v65h-459v-327zM903 524h66v197h-66v-197z" />
<glyph unicode="&#xdf;" horiz-adv-x="958" d="M92 0v721h66v131h65v66h66v65h393v-65h66v-66h65v-197h-65v-131h-66v-65h66v-66h65v-65h66v-197h-66v-65h-65v-66h-394v131h262v66h66v131h-66v65h-65v66h-66v131h66v65h65v131h-65v66h-197v-66h-65v-786h-197zM158 66h65v589h-65v-589zM682 721h66v65h-66v-65zM748 197 h65v65h-65v-65z" />
<glyph unicode="&#xe0;" horiz-adv-x="1042" d="M86 262v459h66v131h65v66h131v65h262v-65h66v-66h65v131h197v-983h-197v131h-65v-65h-66v-66h-262v66h-131v65h-65v131h-66zM152 328h65v327h-65v-327zM283 262h65v-65h262v65h66v66h65v327h-65v66h-66v65h-262v-65h-65v-459zM356 1245v66h197v-66h65v-65h66v-66h-197v66 h-65v65h-66zM414 66h131v65h-131v-65zM414 852h131v66h-131v-66zM741 197h66v-131h65v852h-65v-132h-66v-65h66v-459h-66v-65z" />
<glyph unicode="&#xe1;" horiz-adv-x="1042" d="M86 262v459h66v131h65v66h131v65h262v-65h66v-66h65v131h197v-983h-197v131h-65v-65h-66v-66h-262v66h-131v65h-65v131h-66zM152 328h65v327h-65v-327zM283 262h65v-65h262v65h66v66h65v327h-65v66h-66v65h-262v-65h-65v-459zM356 1180v65h66v66h65v65h197v-65h-66v-66 h-65v-65h-197zM414 66h131v65h-131v-65zM414 852h131v66h-131v-66zM741 197h66v-131h65v852h-65v-132h-66v-65h66v-459h-66v-65z" />
<glyph unicode="&#xe2;" horiz-adv-x="1042" d="M86 262v459h66v131h65v66h131v65h262v-65h66v-66h65v131h197v-983h-197v131h-65v-65h-66v-66h-262v66h-131v65h-65v131h-66zM152 328h65v327h-65v-327zM193 1049v65h65v66h66v65h65v66h262v-66h66v-65h65v-66h66v-65h-131v65h-131v66h-131v-66h-131v-65h-131zM283 262h65 v-65h262v65h66v66h65v327h-65v66h-66v65h-262v-65h-65v-459zM414 66h131v65h-131v-65zM414 852h131v66h-131v-66zM741 197h66v-131h65v852h-65v-132h-66v-65h66v-459h-66v-65z" />
<glyph unicode="&#xe3;" horiz-adv-x="1042" d="M86 262v459h66v131h65v66h131v65h262v-65h66v-66h65v131h197v-983h-197v131h-65v-65h-66v-66h-262v66h-131v65h-65v131h-66zM127 1178v196h66v66h65v65h197v-65h131v-66h196v66h66v65h65v-196h-65v-66h-66v-65h-196v65h-131v66h-197v-66h-65v-65h-66zM152 328h65v327h-65 v-327zM283 262h65v-65h262v65h66v66h65v327h-65v66h-66v65h-262v-65h-65v-459zM324 1374h65v66h-65v-66zM414 66h131v65h-131v-65zM414 852h131v66h-131v-66zM651 1243h66v66h-66v-66zM741 197h66v-131h65v852h-65v-132h-66v-65h66v-459h-66v-65z" />
<glyph unicode="&#xe4;" horiz-adv-x="1042" d="M86 262v459h66v131h65v66h131v65h262v-65h66v-66h65v131h197v-983h-197v131h-65v-65h-66v-66h-262v66h-131v65h-65v131h-66zM152 328h65v327h-65v-327zM225 1180v196h197v-196h-197zM283 262h65v-65h262v65h66v66h65v327h-65v66h-66v65h-262v-65h-65v-459zM291 1245h65 v66h-65v-66zM414 66h131v65h-131v-65zM414 852h131v66h-131v-66zM618 1180v196h197v-196h-197zM684 1245h66v66h-66v-66zM741 197h66v-131h65v852h-65v-132h-66v-65h66v-459h-66v-65z" />
<glyph unicode="&#xe5;" horiz-adv-x="1042" d="M86 262v459h66v131h65v66h131v65h262v-65h66v-66h65v131h197v-983h-197v131h-65v-65h-66v-66h-262v66h-131v65h-65v131h-66zM152 328h65v327h-65v-327zM283 262h65v-65h262v65h66v66h65v327h-65v66h-66v65h-262v-65h-65v-459zM356 1049v196h66v66h196v-66h66v-196h-66 v-66h-196v66h-66zM414 66h131v65h-131v-65zM414 852h131v66h-131v-66zM422 1114h65v-65h66v65h65v66h-65v65h-66v-65h-65v-66zM741 197h66v-131h65v852h-65v-132h-66v-65h66v-459h-66v-65z" />
<glyph unicode="&#xe6;" horiz-adv-x="1609" d="M82 262v197h65v65h66v66h459v131h-66v65h-262v-65h-197v131h66v66h131v65h262v-65h66v-66h65v-66h66v66h65v66h131v65h263v-65h131v-66h65v-131h66v-262h-590v-197h65v-65h263v65h65v66h197v-131h-66v-66h-65v-65h-131v-66h-263v66h-131v65h-65v66h-66v-66h-65v-65h-66 v-66h-262v66h-131v65h-66v131h-65zM147 328h66v65h-66v-65zM279 262h65v-65h262v65h66v197h-328v-66h-65v-131zM410 66h131v65h-131v-65zM410 852h131v66h-131v-66zM737 262h131v459h-131v-459zM934 590h393v131h-65v65h-263v-65h-65v-131zM1065 66h131v65h-131v-65z M1065 852h131v66h-131v-66zM1393 524h65v131h-65v-131z" />
<glyph unicode="&#xe7;" horiz-adv-x="903" d="M86 262v459h66v131h65v66h131v65h262v-65h131v-66h66v-197h-131v66h-66v65h-262v-65h-65v-459h65v-65h262v65h66v66h131v-197h-66v-65h-131v-66h-262v66h-131v65h-65v131h-66zM152 328h65v327h-65v-327zM254 -197h65v-65h132v131h-132v131h66v-66h197v-65h65v-197h-65 v-65h-263v65h-65v131zM414 66h131v65h-131v-65zM414 852h131v66h-131v-66zM516 -197v-65h66v65h-66z" />
<glyph unicode="&#xe8;" horiz-adv-x="958" d="M86 262v459h66v131h65v66h131v65h262v-65h131v-66h66v-131h65v-262h-589v-197h65v-65h262v65h66v66h196v-131h-65v-66h-66v-65h-131v-66h-262v66h-131v65h-65v131h-66zM152 328h65v327h-65v-327zM283 590h393v131h-66v65h-262v-65h-65v-131zM315 1245v66h197v-66h66v-65 h65v-66h-197v66h-65v65h-66zM414 66h131v65h-131v-65zM414 852h131v66h-131v-66zM741 524h66v131h-66v-131z" />
<glyph unicode="&#xe9;" horiz-adv-x="958" d="M86 262v459h66v131h65v66h131v65h262v-65h131v-66h66v-131h65v-262h-589v-197h65v-65h262v65h66v66h196v-131h-65v-66h-66v-65h-131v-66h-262v66h-131v65h-65v131h-66zM152 328h65v327h-65v-327zM283 590h393v131h-66v65h-262v-65h-65v-131zM315 1180v65h66v66h65v65h197 v-65h-65v-66h-66v-65h-197zM414 66h131v65h-131v-65zM414 852h131v66h-131v-66zM741 524h66v131h-66v-131z" />
<glyph unicode="&#xea;" horiz-adv-x="958" d="M86 262v459h66v131h65v66h131v65h262v-65h131v-66h66v-131h65v-262h-589v-197h65v-65h262v65h66v66h196v-131h-65v-66h-66v-65h-131v-66h-262v66h-131v65h-65v131h-66zM152 328h65v327h-65v-327zM152 1049v65h65v66h66v65h65v66h262v-66h66v-65h65v-66h66v-65h-131v65 h-131v66h-131v-66h-131v-65h-131zM283 590h393v131h-66v65h-262v-65h-65v-131zM414 66h131v65h-131v-65zM414 852h131v66h-131v-66zM741 524h66v131h-66v-131z" />
<glyph unicode="&#xeb;" horiz-adv-x="958" d="M86 262v459h66v131h65v66h131v65h262v-65h131v-66h66v-131h65v-262h-589v-197h65v-65h262v65h66v66h196v-131h-65v-66h-66v-65h-131v-66h-262v66h-131v65h-65v131h-66zM152 328h65v327h-65v-327zM184 1180v196h197v-196h-197zM250 1245h65v66h-65v-66zM283 590h393v131 h-66v65h-262v-65h-65v-131zM414 66h131v65h-131v-65zM414 852h131v66h-131v-66zM578 1180v196h196v-196h-196zM643 1245h66v66h-66v-66zM741 524h66v131h-66v-131z" />
<glyph unicode="&#xec;" d="M53 1245v66h197v-66h65v-65h66v-66h-197v66h-65v65h-66zM117 0v983h196v-983h-196zM182 66h66v852h-66v-852z" />
<glyph unicode="&#xed;" d="M53 1180v65h66v66h65v65h197v-65h-66v-66h-65v-65h-197zM117 0v983h196v-983h-196zM182 66h66v852h-66v-852z" />
<glyph unicode="&#xee;" d="M-111 1049v65h66v66h65v65h66v66h262v-66h66v-65h65v-66h66v-65h-131v65h-131v66h-131v-66h-132v-65h-131zM117 0v983h196v-983h-196zM182 66h66v852h-66v-852z" />
<glyph unicode="&#xef;" d="M-78 1180v196h197v-196h-197zM-12 1245h65v66h-65v-66zM117 0v983h196v-983h-196zM182 66h66v852h-66v-852zM315 1180v196h197v-196h-197zM381 1245h65v66h-65v-66z" />
<glyph unicode="&#xf0;" horiz-adv-x="1058" d="M86 262v459h66v131h65v66h131v65h328v-65h65v131h-65v65h-131v-65h-197v65h66v66h65v65h-196v131h262v-65h65v65h66v66h131v-131h-66v-131h66v-66h65v-65h66v-787h-66v-131h-65v-65h-131v-66h-328v66h-131v65h-65v131h-66zM152 328h65v327h-65v-327zM283 262h65v-65h328 v65h65v459h-65v65h-328v-65h-65v-459zM414 66h196v65h-196v-65zM414 852h196v66h-196v-66zM545 1180h131v65h-131v-65zM741 786h66v-458h65v655h-65v-131h-66v-66z" />
<glyph unicode="&#xf1;" horiz-adv-x="993" d="M102 1178v196h66v66h65v65h197v-65h131v-66h197v66h65v65h66v-196h-66v-66h-65v-65h-197v65h-131v66h-197v-66h-65v-65h-66zM109 0v983h196v-131h66v66h65v65h197v-65h131v-66h65v-131h66v-721h-197v721h-65v65h-197v-65h-65v-66h-66v-655h-196zM174 66h66v655h65v65h-65 v132h-66v-852zM299 1374h66v66h-66v-66zM502 852h65v66h-65v-66zM627 1243h65v66h-65v-66zM764 66h65v589h-65v-589z" />
<glyph unicode="&#xf2;" horiz-adv-x="956" d="M86 262v459h66v131h65v66h131v65h262v-65h131v-66h66v-131h65v-459h-65v-131h-66v-65h-131v-66h-262v66h-131v65h-65v131h-66zM152 328h65v327h-65v-327zM283 262h65v-65h262v65h66v459h-66v65h-262v-65h-65v-459zM313 1245v66h197v-66h65v-65h66v-66h-197v66h-65v65h-66 zM414 66h131v65h-131v-65zM414 852h131v66h-131v-66zM741 328h66v327h-66v-327z" />
<glyph unicode="&#xf3;" horiz-adv-x="956" d="M86 262v459h66v131h65v66h131v65h262v-65h131v-66h66v-131h65v-459h-65v-131h-66v-65h-131v-66h-262v66h-131v65h-65v131h-66zM152 328h65v327h-65v-327zM283 262h65v-65h262v65h66v459h-66v65h-262v-65h-65v-459zM313 1180v65h66v66h65v65h197v-65h-66v-66h-65v-65h-197 zM414 66h131v65h-131v-65zM414 852h131v66h-131v-66zM741 328h66v327h-66v-327z" />
<glyph unicode="&#xf4;" horiz-adv-x="956" d="M86 262v459h66v131h65v66h131v65h262v-65h131v-66h66v-131h65v-459h-65v-131h-66v-65h-131v-66h-262v66h-131v65h-65v131h-66zM152 328h65v327h-65v-327zM152 1049v65h65v66h66v65h65v66h262v-66h66v-65h65v-66h66v-65h-131v65h-131v66h-131v-66h-131v-65h-131zM283 262 h65v-65h262v65h66v459h-66v65h-262v-65h-65v-459zM414 66h131v65h-131v-65zM414 852h131v66h-131v-66zM741 328h66v327h-66v-327z" />
<glyph unicode="&#xf5;" horiz-adv-x="956" d="M84 1178v196h66v66h65v65h197v-65h131v-66h196v66h66v65h65v-196h-65v-66h-66v-65h-196v65h-131v66h-197v-66h-65v-65h-66zM86 262v459h66v131h65v66h131v65h262v-65h131v-66h66v-131h65v-459h-65v-131h-66v-65h-131v-66h-262v66h-131v65h-65v131h-66zM152 328h65v327 h-65v-327zM281 1374h65v66h-65v-66zM283 262h65v-65h262v65h66v459h-66v65h-262v-65h-65v-459zM414 66h131v65h-131v-65zM414 852h131v66h-131v-66zM608 1243h66v66h-66v-66zM741 328h66v327h-66v-327z" />
<glyph unicode="&#xf6;" horiz-adv-x="956" d="M86 262v459h66v131h65v66h131v65h262v-65h131v-66h66v-131h65v-459h-65v-131h-66v-65h-131v-66h-262v66h-131v65h-65v131h-66zM152 328h65v327h-65v-327zM182 1180v196h197v-196h-197zM248 1245h65v66h-65v-66zM283 262h65v-65h262v65h66v459h-66v65h-262v-65h-65v-459z M414 66h131v65h-131v-65zM414 852h131v66h-131v-66zM575 1180v196h197v-196h-197zM641 1245h66v66h-66v-66zM741 328h66v327h-66v-327z" />
<glyph unicode="&#xf7;" horiz-adv-x="950" d="M39 459v131h852v-131h-852zM367 131v197h196v-197h-196zM367 721v197h196v-197h-196zM432 197h66v65h-66v-65zM432 786h66v66h-66v-66z" />
<glyph unicode="&#xf8;" horiz-adv-x="1114" d="M61 -66v132h66v65h66v131h-66v459h66v131h65v66h131v65h262v-65h131v-66h131v66h66v65h65v-131h-65v-66h-66v-524h-65v-131h-66v-65h-131v-66h-262v66h-196v-66h-66v-66h-66zM193 328h65v327h-65v-327zM258 131h66v131h-66v-131zM324 328h65v65h66v66h65v65h66v66h65v65 h66v66h-66v65h-262v-65h-65v-393zM389 197h262v65h66v262h-66v-65h-65v-66h-66v-65h-65v-66h-66v-65zM455 66h131v65h-131v-65zM455 852h131v66h-131v-66zM782 328h66v458h-66v-458z" />
<glyph unicode="&#xf9;" horiz-adv-x="997" d="M106 131v852h197v-721h66v-65h196v65h66v66h65v655h197v-983h-197v131h-65v-65h-66v-66h-327v66h-66v65h-66zM172 197h66v-66h65v-65h197v65h-197v66h-65v721h-66v-721zM334 1245v66h196v-66h66v-65h66v-66h-197v66h-66v65h-65zM696 197h66v-131h65v852h-65v-656h-66v-65 z" />
<glyph unicode="&#xfa;" horiz-adv-x="997" d="M106 131v852h197v-721h66v-65h196v65h66v66h65v655h197v-983h-197v131h-65v-65h-66v-66h-327v66h-66v65h-66zM172 197h66v-66h65v-65h197v65h-197v66h-65v721h-66v-721zM334 1180v65h65v66h66v65h197v-65h-66v-66h-66v-65h-196zM696 197h66v-131h65v852h-65v-656h-66v-65 z" />
<glyph unicode="&#xfb;" horiz-adv-x="997" d="M106 131v852h197v-721h66v-65h196v65h66v66h65v655h197v-983h-197v131h-65v-65h-66v-66h-327v66h-66v65h-66zM170 1049v65h66v66h65v65h66v66h262v-66h65v-65h66v-66h65v-65h-131v65h-131v66h-131v-66h-131v-65h-131zM172 197h66v-66h65v-65h197v65h-197v66h-65v721h-66 v-721zM696 197h66v-131h65v852h-65v-656h-66v-65z" />
<glyph unicode="&#xfc;" horiz-adv-x="997" d="M106 131v852h197v-721h66v-65h196v65h66v66h65v655h197v-983h-197v131h-65v-65h-66v-66h-327v66h-66v65h-66zM172 197h66v-66h65v-65h197v65h-197v66h-65v721h-66v-721zM203 1180v196h196v-196h-196zM268 1245h66v66h-66v-66zM596 1180v196h197v-196h-197zM662 1245h65 v66h-65v-66zM696 197h66v-131h65v852h-65v-656h-66v-65z" />
<glyph unicode="&#xfd;" horiz-adv-x="942" d="M78 786v197h196v-197h66v-196h66v-197h65v-65h66v262h65v196h66v197h196v-197h-65v-196h-66v-197h-65v-196h-66v-197h-65v-197h-66v-196h-197v196h66v197h66v131h-66v131h-66v131h-65v197h-66v196h-65zM143 852h66v66h-66v-66zM209 655h65v66h-65v-66zM274 459h66v65h-66 v-65zM307 1180v65h66v66h65v65h197v-65h-66v-66h-65v-65h-197zM340 -262v-66h66v66h-66zM406 -66v-65h65v65h-65zM406 197h65v-131h66v196h-131v-65zM602 459h66v65h-66v-65zM668 655h65v66h-65v-66zM733 852h66v66h-66v-66z" />
<glyph unicode="&#xfe;" horiz-adv-x="954" d="M109 0v983h196v-262h459v-66h65v-65h66v-262h-66v-66h-65v-65h-459v-197h-196zM174 66h66v852h-66v-852zM305 328h328v65h65v131h-65v66h-328v-262zM764 393h65v131h-65v-131z" />
<glyph unicode="&#xff;" horiz-adv-x="942" d="M78 786v197h196v-197h66v-196h66v-197h65v-65h66v262h65v196h66v197h196v-197h-65v-196h-66v-197h-65v-196h-66v-197h-65v-197h-66v-196h-197v196h66v197h66v131h-66v131h-66v131h-65v197h-66v196h-65zM143 852h66v66h-66v-66zM176 1180v196h197v-196h-197zM209 655h65 v66h-65v-66zM242 1245h65v66h-65v-66zM274 459h66v65h-66v-65zM340 -262v-66h66v66h-66zM406 -66v-65h65v65h-65zM406 197h65v-131h66v196h-131v-65zM569 1180v196h197v-196h-197zM602 459h66v65h-66v-65zM635 1245h65v66h-65v-66zM668 655h65v66h-65v-66zM733 852h66v66 h-66v-66z" />
<glyph unicode="&#x153;" horiz-adv-x="1548" d="M86 262v459h66v131h65v66h131v65h262v-65h131v-66h66v66h131v65h262v-65h131v-66h66v-131h65v-262h-590v-197h66v-65h262v65h66v66h196v-131h-65v-66h-66v-65h-131v-66h-262v66h-131v65h-66v-65h-131v-66h-262v66h-131v65h-65v131h-66zM152 328h65v327h-65v-327zM283 262 h65v-65h262v65h66v459h-66v65h-262v-65h-65v-459zM414 66h131v65h-131v-65zM414 852h131v66h-131v-66zM741 197h66v589h-66v-589zM872 590h394v131h-66v65h-262v-65h-66v-131zM1004 66h131v65h-131v-65zM1004 852h131v66h-131v-66zM1331 524h66v131h-66v-131z" />
<glyph unicode="&#x178;" horiz-adv-x="1230" d="M57 1245v66h262v-131h66v-131h66v-131h65v-132h66v-131h65v131h66v132h65v131h66v131h65v131h262v-66h-65v-131h-66v-131h-65v-131h-66v-131h-65v-131h-66v-131h-65v-459h-197v459h-65v131h-66v131h-66v131h-65v131h-66v131h-65v131h-66zM188 1180h66v65h-66v-65z M254 1049h65v65h-65v-65zM319 918h66v65h-66v-65zM319 1507v197h197v-197h-197zM385 786h66v66h-66v-66zM385 1573h66v65h-66v-65zM451 655h65v66h-65v-66zM516 524h66v-458h65v458h66v66h-197v-66zM713 655h65v66h-65v-66zM713 1507v197h196v-197h-196zM778 786h66v66h-66 v-66zM778 1573h66v65h-66v-65zM844 918h65v65h-65v-65zM909 1049h66v65h-66v-65zM975 1180h65v65h-65v-65z" />
<glyph unicode="&#x2c6;" horiz-adv-x="962" d="M162 1049v65h65v66h66v65h65v66h263v-66h65v-65h66v-66h65v-65h-131v65h-131v66h-131v-66h-131v-65h-131z" />
<glyph unicode="&#x2dc;" horiz-adv-x="925" d="M72 1178v196h65v66h66v65h196v-65h131v-66h197v66h66v65h65v-196h-65v-66h-66v-65h-197v65h-131v66h-196v-66h-66v-65h-65zM268 1374h66v66h-66v-66zM596 1243h66v66h-66v-66z" />
<glyph unicode="&#x2000;" horiz-adv-x="916" />
<glyph unicode="&#x2001;" horiz-adv-x="1833" />
<glyph unicode="&#x2002;" horiz-adv-x="916" />
<glyph unicode="&#x2003;" horiz-adv-x="1833" />
<glyph unicode="&#x2004;" horiz-adv-x="611" />
<glyph unicode="&#x2005;" horiz-adv-x="458" />
<glyph unicode="&#x2006;" horiz-adv-x="305" />
<glyph unicode="&#x2007;" horiz-adv-x="305" />
<glyph unicode="&#x2008;" horiz-adv-x="229" />
<glyph unicode="&#x2009;" horiz-adv-x="366" />
<glyph unicode="&#x200a;" horiz-adv-x="101" />
<glyph unicode="&#x2010;" horiz-adv-x="864" d="M72 459v196h721v-196h-721zM137 524h590v66h-590v-66z" />
<glyph unicode="&#x2011;" horiz-adv-x="864" d="M72 459v196h721v-196h-721zM137 524h590v66h-590v-66z" />
<glyph unicode="&#x2012;" horiz-adv-x="864" d="M72 459v196h721v-196h-721zM137 524h590v66h-590v-66z" />
<glyph unicode="&#x2013;" horiz-adv-x="1167" d="M72 459v196h1024v-196h-1024zM164 524h838v66h-838v-66z" />
<glyph unicode="&#x2014;" horiz-adv-x="1380" d="M61 655v131h1246v-131h-1246z" />
<glyph unicode="&#x2018;" horiz-adv-x="382" d="M66 983v262h65v66h131v-66h-65v-131h65v-131h-196z" />
<glyph unicode="&#x2019;" horiz-adv-x="382" d="M66 983v66h65v131h-65v131h196v-262h-65v-66h-131z" />
<glyph unicode="&#x201a;" horiz-adv-x="368" d="M55 0v197h197v-328h-66v-66h-131v66h66v65h65v66h-131zM121 66h65v65h-65v-65z" />
<glyph unicode="&#x201c;" horiz-adv-x="645" d="M66 983v262h65v66h131v-66h-65v-131h65v-131h-196zM328 983v262h65v66h131v-66h-65v-131h65v-131h-196z" />
<glyph unicode="&#x201d;" horiz-adv-x="645" d="M66 983v66h65v131h-65v131h196v-262h-65v-66h-131zM328 983v66h65v131h-65v131h196v-262h-65v-66h-131z" />
<glyph unicode="&#x201e;" horiz-adv-x="696" d="M55 0v197h197v-328h-66v-66h-131v66h66v65h65v66h-131zM121 66h65v65h-65v-65zM383 0v197h197v-328h-66v-66h-131v66h66v65h65v66h-131zM449 66h65v65h-65v-65z" />
<glyph unicode="&#x2022;" horiz-adv-x="473" d="M72 655v197h65v66h197v-66h65v-197h-65v-65h-197v65h-65zM137 721h66v-66h65v66h66v65h-66v66h-65v-66h-66v-65z" />
<glyph unicode="&#x2026;" horiz-adv-x="874" d="M53 0v197h197v-197h-197zM119 66h65v65h-65v-65zM381 0v197h197v-197h-197zM446 66h66v65h-66v-65zM709 0v197h196v-197h-196zM774 66h66v65h-66v-65z" />
<glyph unicode="&#x202f;" horiz-adv-x="366" />
<glyph unicode="&#x2039;" horiz-adv-x="897" d="M43 655v131h66v66h65v66h66v65h65v66h66v65h65v66h66v65h65v66h66v65h65v66h66v-131h-66v-66h-65v-65h-66v-66h-65v-65h-66v-66h-65v-65h-66v-66h-65v-66h-66v-131h66v-65h65v-66h66v-65h65v-66h66v-65h65v-66h66v-65h65v-66h66v-131h-66v66h-65v65h-66v66h-65v65h-66v66 h-65v65h-66v66h-65v65h-66v66h-65v65h-66z" />
<glyph unicode="&#x203a;" horiz-adv-x="851" d="M72 0v131h65v66h66v65h65v66h66v65h65v66h66v65h65v66h66v65h66v131h-66v66h-66v66h-65v65h-66v66h-65v65h-66v66h-65v65h-66v66h-65v131h65v-66h66v-65h65v-66h66v-65h65v-66h66v-65h65v-66h66v-65h66v-66h65v-66h66v-131h-66v-65h-65v-66h-66v-65h-66v-66h-65v-65h-66 v-66h-65v-65h-66v-66h-65v-65h-66v-66h-65zM72 0v131h65v66h66v65h65v66h66v65h65v66h66v65h65v66h66v65h66v131h-66v66h-66v66h-65v65h-66v66h-65v65h-66v66h-65v65h-66v66h-65v131h65v-66h66v-65h65v-66h66v-65h65v-66h66v-65h65v-66h66v-65h66v-66h65v-66h66v-131h-66 v-65h-65v-66h-66v-65h-66v-66h-65v-65h-66v-66h-65v-65h-66v-66h-65v-65h-66v-66h-65zM72 66v65h65v66h66v65h65v66h66v65h65v66h66v65h65v66h66v65h66v66v65h-66v66h-66v66h-65v65h-66v66h-65v65h-66v66h-65v65h-66v66h-65v131l65 -66h66v-65h65v-66h66v-65h65v-66h66v-65 h65v-66h66v-65h66v-66h65v-262h-65v-66h-66v-65h-66v-66h-65v-65h-66v-66h-65v-65h-66v-66h-65v-65h-131z" />
<glyph unicode="&#x205f;" horiz-adv-x="458" />
<glyph unicode="&#x20ac;" horiz-adv-x="1468" d="M68 459v131h131v131h-131v131h131v66h65v131h66v65h65v66h66v65h196v66h328v-66h197v-65h65v-131h66v-66h65v-65h-262v65h-65v66h-131v65h-197v-65h-131v-66h-66v-65h-65v-66h524v-131h-590v-131h590v-131h-524v-66h65v-65h66v-66h131v-65h197v65h131v66h65v65h262v-65 h-65v-66h-66v-131h-65v-65h-197v-66h-328v66h-196v65h-66v66h-65v65h-66v131h-65v66h-131zM264 459h66v-131h65v-66h66v-65h65v-66h131v66h-131v65h-65v66h-66v196h-65v262h65v197h-65v-131h-66v-393zM395 983h66v66h-66v-66zM461 1049h65v65h-65v-65zM526 1114h131v66h-131 v-66zM723 66h197v65h-197v-65zM723 1180h197v65h-197v-65zM985 131h131v66h-131v-66zM985 1114h131v-65h66v65h-66v66h-131v-66zM1116 197h66v65h-66v-65z" />
<glyph unicode="&#x2122;" horiz-adv-x="1564" d="M2 1180v131h655v-131h-262v-721h-131v721h-262zM723 459v852h131v-131h66v-66h65v-131h66v-131h65v131h66v131h65v66h66v131h131v-852h-131v524h-66v-131h-65v-131h-66v-131h-65v131h-66v131h-65v131h-66v-524h-131zM788 1049h66v65h-66v-65zM1313 1049h65v65h-65v-65z " />
<glyph unicode="&#x25fc;" horiz-adv-x="983" d="M0 0v983h983v-983h-983z" />
</font>
</defs>
</svg>
