<svg width="478" height="295" viewBox="0 0 478 295" fill="none" xmlns="http://www.w3.org/2000/svg">
<path d="M478 286L463 277.34V294.66L478 286ZM0 3.5H159.859V0.5H0V3.5ZM236.359 80V208H239.359V80H236.359ZM315.859 287.5H343.325V284.5H315.859V287.5ZM343.325 287.5H464.5V284.5H343.325V287.5ZM236.359 208C236.359 251.907 271.953 287.5 315.859 287.5V284.5C273.609 284.5 239.359 250.25 239.359 208H236.359ZM159.859 3.5C202.109 3.5 236.359 37.7502 236.359 80H239.359C239.359 36.0934 203.766 0.5 159.859 0.5V3.5Z" fill="white"/>
</svg>
