<svg width="1144" height="430" viewBox="0 0 1144 430" fill="none" xmlns="http://www.w3.org/2000/svg">
<path d="M594.005 127.159C591.313 122.668 589.532 117.69 588.764 112.511C587.995 107.331 588.255 102.051 589.527 96.9717C590.799 91.8924 593.059 87.1134 596.178 82.9076C599.297 78.7017 603.214 75.1515 607.705 72.4594C612.197 69.7673 617.174 67.9862 622.353 67.2178C627.533 66.4494 632.813 66.7086 637.892 67.9808C642.972 69.2529 647.751 71.5131 651.957 74.6322C656.162 77.7512 659.713 81.6682 662.405 86.1594L644.793 96.7158C643.488 94.5374 641.766 92.6375 639.726 91.1246C637.686 89.6117 635.368 88.5155 632.904 87.8984C630.44 87.2814 627.879 87.1556 625.367 87.5284C622.855 87.9011 620.44 88.765 618.262 90.0708C616.083 91.3765 614.184 93.0986 612.671 95.1386C611.158 97.1786 610.062 99.4966 609.444 101.96C608.827 104.424 608.702 106.985 609.074 109.497C609.447 112.01 610.311 114.424 611.617 116.602L594.005 127.159Z" fill="#2727E7"/>
<path d="M31.6507 13.8737L70.9665 23.0627L74.3766 63.2938L37.1682 78.9691L10.7622 48.4258L31.6507 13.8737Z" fill="#F93528"/>
<path d="M601.664 362.277L639.625 348.524L664.436 380.376L641.809 413.816L603.014 402.63L601.664 362.277Z" fill="#B2CCFF"/>
<path d="M1107.29 177.328L1138.69 225.841L1080.97 228.778L1107.29 177.328Z" fill="#FFB615"/>
</svg>
