<svg width="864" height="428" viewBox="0 0 864 428" fill="none" xmlns="http://www.w3.org/2000/svg">
<path d="M281.392 75.9453C284.084 71.4542 285.865 66.4767 286.634 61.2973C287.402 56.1178 287.143 50.8376 285.871 45.7583C284.599 40.679 282.338 35.9 279.219 31.6942C276.1 27.4884 272.183 23.9381 267.692 21.246C263.201 18.554 258.224 16.7729 253.044 16.0044C247.865 15.236 242.584 15.4952 237.505 16.7674C232.426 18.0396 227.647 20.2997 223.441 23.4188C219.235 26.5379 215.685 30.4548 212.993 34.946L230.604 45.5024C231.91 43.324 233.632 41.4241 235.672 39.9113C237.712 38.3984 240.03 37.3021 242.494 36.6851C244.957 36.068 247.519 35.9422 250.031 36.315C252.543 36.6877 254.957 37.5516 257.136 38.8574C259.314 40.1631 261.214 41.8852 262.727 43.9252C264.24 45.9652 265.336 48.2832 265.953 50.7469C266.57 53.2106 266.696 55.7716 266.323 58.2839C265.95 60.7962 265.087 63.2105 263.781 65.3889L281.392 75.9453Z" fill="#FFC2C2"/>
<path d="M296.168 314.771L296.008 372.559L246.042 343.526L296.168 314.771Z" fill="#27C4E7"/>
<path d="M827.288 293.328L858.688 341.841L800.975 344.778L827.288 293.328Z" fill="#FFB615"/>
<circle cx="30" cy="398" r="30" fill="#FF7043"/>
<rect x="543.193" y="79.7329" width="38.1051" height="38.1051" transform="rotate(15 543.193 79.7329)" fill="#9825FB"/>
</svg>
