<svg xmlns="http://www.w3.org/2000/svg" viewBox="0 0 267.89 90.39"><defs><style>.cls-1{fill:#009b8d;}.cls-2{fill:#41384b;}.cls-3{fill:#28222e;}</style></defs><title>Asset 1</title><g id="Layer_2" data-name="Layer 2"><g id="content"><g id="Color_NMC"><polygon class="cls-1" points="23.39 46.02 0 23.16 0 0.63 8.22 0.63 52.97 44.37 52.97 1.01 76.11 1.01 76.11 89.63 68.02 89.63 23.39 46.02"/><polygon class="cls-1" points="165.99 0.76 174.08 0.76 174.08 89.51 150.95 89.51 150.95 50.06 132.11 69.78 129.58 69.78 110.87 50.06 87.74 25.68 87.74 0.76 96.08 0.76 130.72 39.19 165.99 0.76"/><polygon class="cls-2" points="110.87 50.06 110.87 89.51 87.74 89.51 87.74 25.68 110.87 50.06"/><path class="cls-1" d="M225.92,0c18.33,0,38.17,10,41.59,33.63H245.26c-3.16-9-9.86-13-19.34-13-13.28,0-22,10-22,24.65H180.53C180.66,15.17,203.41,0,225.92,0"/><polygon class="cls-3" points="110.87 50.06 110.87 54.98 87.74 25.68 110.87 50.06"/><polygon class="cls-2" points="23.39 46.02 23.39 89.51 0 89.51 0 23.16 23.39 46.02"/><polygon class="cls-3" points="23.39 46.02 23.39 51.67 0 23.16 23.39 46.02"/><path class="cls-2" d="M203.92,45.26c0,13,8.59,24.4,22,24.52,9.6,0,17.31-4.8,19.72-14.28h22.25c-3.29,25-23.14,34.89-42,34.89-22.51.13-45.26-15-45.39-45.13Z"/><path class="cls-3" d="M203.92,45.26H180.53l23.72,4.37a28.73,28.73,0,0,1-.33-4.37"/></g></g></g></svg>