<svg viewBox="0 0 267.89 90.39" xmlns="http://www.w3.org/2000/svg"><path d="m23.39 46.02-23.39-22.86v-22.53h8.22l44.75 43.74v-43.36h23.14v88.62h-8.09z" fill="#009b8d"/><path d="m165.99.76h8.09v88.75h-23.13v-39.45l-18.84 19.72h-2.53l-18.71-19.72-23.13-24.38v-24.92h8.34l34.64 38.43z" fill="#009b8d"/><path d="m110.87 50.06v39.45h-23.13v-63.83z" fill="#41384b"/><path d="m225.92 0c18.33 0 38.17 10 41.59 33.63h-22.25c-3.16-9-9.86-13-19.34-13-13.28 0-22 10-22 24.65h-23.39c.13-30.11 22.88-45.28 45.39-45.28" fill="#009b8d"/><path d="m110.87 50.06v4.92l-23.13-29.3z" fill="#28222e"/><path d="m23.39 46.02v43.49h-23.39v-66.35z" fill="#41384b"/><path d="m23.39 46.02v5.65l-23.39-28.51z" fill="#28222e"/><path d="m203.92 45.26c0 13 8.59 24.4 22 24.52 9.6 0 17.31-4.8 19.72-14.28h22.25c-3.29 25-23.14 34.89-42 34.89-22.51.13-45.26-15-45.39-45.13z" fill="#41384b"/><path d="m203.92 45.26h-23.39l23.72 4.37a28.73 28.73 0 0 1 -.33-4.37" fill="#28222e"/></svg>