<svg xmlns="http://www.w3.org/2000/svg" xmlns:xlink="http://www.w3.org/1999/xlink" viewBox="0 0 24 24"><defs><style>.cls-1{fill:none;}.cls-2{opacity:0.25;}.cls-3{clip-path:url(#clip-path);}.cls-4{fill:#0b0b0a;fill-rule:evenodd;}</style><clipPath id="clip-path"><rect class="cls-1" width="24" height="24"/></clipPath></defs><title>Asset 3</title><g id="Layer_2" data-name="Layer 2"><g id="content"><g class="cls-2"><g class="cls-3"><path class="cls-4" d="M12.82,24H1.32A1.32,1.32,0,0,1,0,22.68V1.32A1.32,1.32,0,0,1,1.32,0H22.68A1.32,1.32,0,0,1,24,1.32V22.68A1.32,1.32,0,0,1,22.68,24H16.56V14.71h3.12l.47-3.63H16.56V8.77c0-1,.29-1.76,1.79-1.76h1.92V3.77a23.5,23.5,0,0,0-2.79-.15c-2.77,0-4.66,1.69-4.66,4.79v2.67H9.69v3.63h3.13Z"/></g></g></g></g></svg>