<svg width="215" height="214" viewBox="0 0 215 214" fill="none" xmlns="http://www.w3.org/2000/svg">
<path d="M107.314 0.0136719L133.28 35.6017L176.047 25.0304L173.063 68.9831L212.619 88.3749L182.081 120.126L199.918 160.408L156.114 165.101L143.886 207.424L107.314 182.863L70.7421 207.424L58.5138 165.101L14.7106 160.408L32.5477 120.126L2.00926 88.3749L41.5656 68.9831L38.5813 25.0304L81.348 35.6017L107.314 0.0136719Z" fill="#FF7043"/>
<path d="M55.1299 128.381V92.3521H64.137V95.955H65.9385V99.5579H67.7399V103.161H69.5414V106.764H71.3428V110.366H73.1442V113.969H74.9457V117.572H76.7471V121.175H78.5485V92.3521H83.9529V128.381H74.9457V124.778H73.1442V121.175H71.3428V117.572H69.5414V113.969H67.7399V110.366H65.9385V106.764H64.137V103.161H62.3356V99.5579H60.5342V128.381H55.1299ZM90.4831 128.381V92.3521H99.4902V97.7564H101.292V101.359H103.093V106.764H104.895V112.168H106.696V119.374H108.497V112.168H110.299V106.764H112.1V101.359H113.902V97.7564H115.703V92.3521H124.71V128.381H119.306V101.359H117.505V104.962H115.703V112.168H113.902V119.374H112.1V124.778H110.299V128.381H104.895V124.778H103.093V119.374H101.292V112.168H99.4902V104.962H97.6888V101.359H95.8874V128.381H90.4831ZM143.119 128.381V126.579H137.714V124.778H135.913V122.977H134.112V121.175H132.31V117.572H130.509V103.161H132.31V99.5579H134.112V97.7564H135.913V95.955H137.714V94.1536H143.119V92.3521H152.126V94.1536H157.53V95.955H159.332V99.5579H161.133V101.359H162.935V103.161H155.729V101.359H153.927V99.5579H150.325V97.7564H144.92V99.5579H141.317V101.359H139.516V103.161H137.714V106.764H135.913V113.969H137.714V117.572H139.516V119.374H141.317V121.175H144.92V122.977H150.325V121.175H153.927V119.374H155.729V117.572H162.935V119.374H161.133V121.175H159.332V124.778H157.53V126.579H152.126V128.381H143.119Z" fill="black"/>
</svg>
