<svg width="233" height="142" viewBox="0 0 233 142" fill="none" xmlns="http://www.w3.org/2000/svg">
<ellipse cx="116.4" cy="70.9065" rx="115.997" ry="70.427" fill="#FFC2C2"/>
<path d="M63.239 62.2529V33.6979H70.3777V37.9812H71.8055V40.8367H73.2332V45.1199H74.661V49.4032H76.0887V55.1142H77.5165V49.4032H78.9442V45.1199H80.372V40.8367H81.7997V37.9812H83.2275V33.6979H90.3662V62.2529H86.083V40.8367H84.6552V43.6922H83.2275V49.4032H81.7997V55.1142H80.372V59.3974H78.9442V62.2529H74.661V59.3974H73.2332V55.1142H71.8055V49.4032H70.3777V43.6922H68.95V40.8367H67.5222V62.2529H63.239ZM112.363 49.4032V47.9754H110.935V45.1199H109.507V42.2644H108.079V39.4089H106.652V42.2644H105.224V45.1199H103.796V47.9754H102.368V49.4032H112.363ZM93.8018 62.2529V57.9697H95.2295V55.1142H96.6573V50.8309H98.085V47.9754H99.5128V45.1199H100.941V42.2644H102.368V39.4089H103.796V36.5534H105.224V33.6979H109.507V36.5534H110.935V39.4089H112.363V42.2644H113.79V45.1199H115.218V47.9754H116.646V50.8309H118.074V55.1142H119.501V57.9697H120.929V62.2529H116.646V59.3974H115.218V56.5419H113.79V53.6864H100.941V56.5419H99.5128V59.3974H98.085V62.2529H93.8018ZM124.409 62.2529V33.6979H128.692V46.5477H130.12V45.1199H131.548V43.6922H132.976V42.2644H134.403V40.8367H135.831V39.4089H137.259V37.9812H138.687V36.5534H140.114V35.1257H141.542V33.6979H147.253V35.1257H145.825V36.5534H144.398V37.9812H142.97V39.4089H141.542V40.8367H140.114V42.2644H138.687V43.6922H137.259V45.1199H135.831V47.9754H137.259V49.4032H138.687V50.8309H140.114V52.2587H141.542V53.6864H142.97V55.1142H144.398V56.5419H145.825V57.9697H147.253V59.3974H148.681V60.8252H150.109V62.2529H144.398V60.8252H142.97V59.3974H141.542V57.9697H140.114V56.5419H138.687V55.1142H137.259V53.6864H135.831V52.2587H134.403V50.8309H132.976V49.4032H131.548V50.8309H130.12V52.2587H128.692V62.2529H124.409ZM152.34 62.2529V33.6979H169.473V37.9812H156.623V45.1199H169.473V49.4032H156.623V57.9697H169.473V62.2529H152.34ZM65.7152 108.253V106.825H62.8597V105.397H61.432V103.97H60.0042V101.114H64.2875V102.542H65.7152V103.97H72.854V102.542H74.2817V98.2587H72.854V96.8309H71.4262V95.4032H67.143V93.9754H62.8597V92.5477H61.432V91.1199H60.0042V83.9812H61.432V82.5534H62.8597V81.1257H64.2875V79.6979H74.2817V81.1257H75.7095V82.5534H77.1372V85.4089H72.854V83.9812H65.7152V85.4089H64.2875V89.6922H67.143V91.1199H71.4262V92.5477H74.2817V93.9754H77.1372V96.8309H78.565V103.97H77.1372V105.397H75.7095V106.825H72.854V108.253H65.7152ZM90.6562 108.253V83.9812H80.662V79.6979H104.934V83.9812H94.9395V108.253H90.6562ZM113.366 108.253V106.825H110.511V105.397H109.083V102.542H107.655V79.6979H111.939V99.6864H113.366V102.542H114.794V103.97H121.933V102.542H123.361V99.6864H124.788V79.6979H129.072V102.542H127.644V105.397H126.216V106.825H123.361V108.253H113.366ZM134.247 108.253V79.6979H151.38V83.9812H138.531V91.1199H151.38V95.4032H138.531V108.253H134.247ZM155.351 108.253V79.6979H172.484V83.9812H159.634V91.1199H172.484V95.4032H159.634V108.253H155.351Z" fill="black"/>
</svg>
