<svg width="110" height="110" viewBox="0 0 110 110" fill="none" xmlns="http://www.w3.org/2000/svg">
<rect x="0.452148" y="0.71875" width="108.562" height="108.562" fill="#2727E7"/>
<path d="M20.638 52.6094V51.6712H17.8236V50.7331H16.8855V49.795H15.9474V48.8569H15.0092V46.9806H14.0711V39.4756H15.0092V37.5993H15.9474V36.6612H16.8855V35.7231H17.8236V34.7849H20.638V33.8468H25.3286V34.7849H28.143V35.7231H29.0811V37.5993H30.0193V38.5375H30.9574V39.4756H27.2049V38.5375H26.2668V37.5993H24.3905V36.6612H21.5761V37.5993H19.6999V38.5375H18.7617V39.4756H17.8236V41.3518H16.8855V45.1044H17.8236V46.9806H18.7617V47.9187H19.6999V48.8569H21.5761V49.795H24.3905V48.8569H26.2668V47.9187H27.2049V46.9806H28.143V45.1044H22.5142V42.29H30.9574V47.9187H30.0193V48.8569H29.0811V50.7331H28.143V51.6712H25.3286V52.6094H20.638ZM43.9446 49.795V48.8569H45.8209V47.9187H46.759V46.9806H47.6971V45.1044H48.6352V41.3518H47.6971V39.4756H46.759V38.5375H45.8209V37.5993H43.9446V36.6612H41.1302V37.5993H39.254V38.5375H38.3158V39.4756H37.3777V41.3518H36.4396V45.1044H37.3777V46.9806H38.3158V47.9187H39.254V48.8569H41.1302V49.795H43.9446ZM40.1921 52.6094V51.6712H37.3777V50.7331H36.4396V49.795H35.5014V48.8569H34.5633V46.9806H33.6252V39.4756H34.5633V37.5993H35.5014V36.6612H36.4396V35.7231H37.3777V34.7849H40.1921V33.8468H44.8827V34.7849H47.6971V35.7231H48.6352V36.6612H49.5734V37.5993H50.5115V39.4756H51.4496V46.9806H50.5115V48.8569H49.5734V49.795H48.6352V50.7331H47.6971V51.6712H44.8827V52.6094H40.1921ZM67.8669 52.6094V36.6612H61.3V33.8468H77.2481V36.6612H70.6812V52.6094H67.8669ZM87.8314 49.795V48.8569H89.7076V47.9187H90.6458V46.9806H91.5839V45.1044H92.522V41.3518H91.5839V39.4756H90.6458V38.5375H89.7076V37.5993H87.8314V36.6612H85.017V37.5993H83.1407V38.5375H82.2026V39.4756H81.2645V41.3518H80.3264V45.1044H81.2645V46.9806H82.2026V47.9187H83.1407V48.8569H85.017V49.795H87.8314ZM84.0789 52.6094V51.6712H81.2645V50.7331H80.3264V49.795H79.3882V48.8569H78.4501V46.9806H77.512V39.4756H78.4501V37.5993H79.3882V36.6612H80.3264V35.7231H81.2645V34.7849H84.0789V33.8468H88.7695V34.7849H91.5839V35.7231H92.522V36.6612H93.4601V37.5993H94.3983V39.4756H95.3364V46.9806H94.3983V48.8569H93.4601V49.795H92.522V50.7331H91.5839V51.6712H88.7695V52.6094H84.0789ZM22.1038 82.6094V81.6712H20.2276V80.7331H19.2894V79.795H18.3513V77.9187H21.1657V78.8569H22.1038V79.795H26.7945V78.8569H27.7326V76.0425H26.7945V75.1044H25.8563V74.1662H23.0419V73.2281H20.2276V72.29H19.2894V71.3518H18.3513V66.6612H19.2894V65.7231H20.2276V64.7849H21.1657V63.8468H27.7326V64.7849H28.6707V65.7231H29.6088V67.5993H26.7945V66.6612H22.1038V67.5993H21.1657V70.4137H23.0419V71.3518H25.8563V72.29H27.7326V73.2281H29.6088V75.1044H30.547V79.795H29.6088V80.7331H28.6707V81.6712H26.7945V82.6094H22.1038ZM33.5959 82.6094V63.8468H36.4103V79.795H45.7915V82.6094H33.5959ZM48.4593 82.6094V63.8468H59.7169V66.6612H51.2737V71.3518H59.7169V74.1662H51.2737V79.795H59.7169V82.6094H48.4593ZM63.1176 82.6094V63.8468H74.3751V66.6612H65.932V71.3518H74.3751V74.1662H65.932V79.795H74.3751V82.6094H63.1176ZM87.1571 71.3518V70.4137H88.0952V67.5993H87.1571V66.6612H80.5902V71.3518H87.1571ZM77.7758 82.6094V63.8468H88.0952V64.7849H89.0334V65.7231H89.9715V66.6612H90.9096V71.3518H89.9715V72.29H89.0334V73.2281H88.0952V74.1662H80.5902V82.6094H77.7758Z" fill="white"/>
</svg>
