<svg width="156" height="156" viewBox="0 0 156 156" fill="none" xmlns="http://www.w3.org/2000/svg">
<circle cx="77.8477" cy="77.7451" r="77.4541" fill="#F93528"/>
<path d="M41.2025 70.7451V41.5389H45.5834V66.3642H60.1865V70.7451H41.2025ZM82.1825 57.6023V56.142H80.7222V53.2214H79.2618V50.3007H77.8015V47.3801H76.3412V50.3007H74.8809V53.2214H73.4206V56.142H71.9603V57.6023H82.1825ZM63.1984 70.7451V66.3642H64.6587V63.4436H66.119V59.0626H67.5793V56.142H69.0397V53.2214H70.5V50.3007H71.9603V47.3801H73.4206V44.4595H74.8809V41.5389H79.2618V44.4595H80.7222V47.3801H82.1825V50.3007H83.6428V53.2214H85.1031V56.142H86.5634V59.0626H88.0237V63.4436H89.484V66.3642H90.9443V70.7451H86.5634V67.8245H85.1031V64.9039H83.6428V61.9832H70.5V64.9039H69.0397V67.8245H67.5793V70.7451H63.1984ZM109.107 66.3642V64.9039H110.567V59.0626H109.107V57.6023H98.8848V66.3642H109.107ZM107.647 53.2214V51.7611H109.107V47.3801H107.647V45.9198H98.8848V53.2214H107.647ZM94.5039 70.7451V41.5389H109.107V42.9992H110.567V44.4595H112.028V45.9198H113.488V53.2214H112.028V56.142H113.488V57.6023H114.948V66.3642H113.488V67.8245H112.028V69.2848H110.567V70.7451H94.5039ZM41.2025 114.745V85.5389H45.5834V110.364H60.1865V114.745H41.2025ZM82.1825 101.602V100.142H80.7222V97.2214H79.2618V94.3007H77.8015V91.3801H76.3412V94.3007H74.8809V97.2214H73.4206V100.142H71.9603V101.602H82.1825ZM63.1984 114.745V110.364H64.6587V107.444H66.119V103.063H67.5793V100.142H69.0397V97.2214H70.5V94.3007H71.9603V91.3801H73.4206V88.4595H74.8809V85.5389H79.2618V88.4595H80.7222V91.3801H82.1825V94.3007H83.6428V97.2214H85.1031V100.142H86.5634V103.063H88.0237V107.444H89.484V110.364H90.9443V114.745H86.5634V111.824H85.1031V108.904H83.6428V105.983H70.5V108.904H69.0397V111.824H67.5793V114.745H63.1984ZM109.107 110.364V108.904H110.567V103.063H109.107V101.602H98.8848V110.364H109.107ZM107.647 97.2214V95.7611H109.107V91.3801H107.647V89.9198H98.8848V97.2214H107.647ZM94.5039 114.745V85.5389H109.107V86.9992H110.567V88.4595H112.028V89.9198H113.488V97.2214H112.028V100.142H113.488V101.602H114.948V110.364H113.488V111.824H112.028V113.285H110.567V114.745H94.5039Z" fill="white"/>
</svg>
