<svg width="156" height="156" viewBox="0 0 156 156" fill="none" xmlns="http://www.w3.org/2000/svg">
<circle cx="77.626" cy="78.042" r="77.4541" fill="#F93528"/>
<path d="M43.3769 53.7783V52.6968H40.1324V51.6153H39.0509V50.5338H37.9694V49.4523H36.8879V47.2893H35.8064V38.6374H36.8879V36.4744H37.9694V35.3929H39.0509V34.3114H40.1324V33.2299H43.3769V32.1484H48.7843V33.2299H52.0288V34.3114H53.1103V36.4744H54.1918V37.5559H55.2733V38.6374H50.9473V37.5559H49.8658V36.4744H47.7028V35.3929H44.4583V36.4744H42.2954V37.5559H41.2139V38.6374H40.1324V40.8004H39.0509V45.1263H40.1324V47.2893H41.2139V48.3708H42.2954V49.4523H44.4583V50.5338H47.7028V49.4523H49.8658V48.3708H50.9473V47.2893H55.2733V48.3708H54.1918V49.4523H53.1103V51.6153H52.0288V52.6968H48.7843V53.7783H43.3769ZM58.1122 53.7783V32.1484H61.3567V50.5338H72.1717V53.7783H58.1122ZM75.2472 53.7783V32.1484H78.4917V53.7783H75.2472ZM89.5433 53.7783V52.6968H86.2988V51.6153H85.2173V50.5338H84.1358V49.4523H83.0543V47.2893H81.9728V38.6374H83.0543V36.4744H84.1358V35.3929H85.2173V34.3114H86.2988V33.2299H89.5433V32.1484H94.9507V33.2299H98.1952V34.3114H99.2767V36.4744H100.358V37.5559H101.44V38.6374H97.1137V37.5559H96.0322V36.4744H93.8692V35.3929H90.6248V36.4744H88.4618V37.5559H87.3803V38.6374H86.2988V40.8004H85.2173V45.1263H86.2988V47.2893H87.3803V48.3708H88.4618V49.4523H90.6248V50.5338H93.8692V49.4523H96.0322V48.3708H97.1137V47.2893H101.44V48.3708H100.358V49.4523H99.2767V51.6153H98.1952V52.6968H94.9507V53.7783H89.5433ZM104.279 53.7783V32.1484H107.523V41.8819H108.605V40.8004H109.686V39.7189H110.768V38.6374H111.849V37.5559H112.931V36.4744H114.012V35.3929H115.094V34.3114H116.175V33.2299H117.257V32.1484H121.583V33.2299H120.501V34.3114H119.42V35.3929H118.338V36.4744H117.257V37.5559H116.175V38.6374H115.094V39.7189H114.012V40.8004H112.931V42.9633H114.012V44.0448H115.094V45.1263H116.175V46.2078H117.257V47.2893H118.338V48.3708H119.42V49.4523H120.501V50.5338H121.583V51.6153H122.664V52.6968H123.746V53.7783H119.42V52.6968H118.338V51.6153H117.257V50.5338H116.175V49.4523H115.094V48.3708H114.012V47.2893H112.931V46.2078H111.849V45.1263H110.768V44.0448H109.686V45.1263H108.605V46.2078H107.523V53.7783H104.279ZM75.788 86.7783V85.6968H73.625V84.6153H72.5435V82.4523H71.462V78.1263H72.5435V75.9633H73.625V74.8819H74.7065V73.8004H73.625V72.7189H72.5435V69.4744H73.625V67.3114H74.7065V66.2299H76.8695V65.1484H81.1954V66.2299H83.3584V67.3114H84.4399V68.3929H85.5214V71.6374H84.4399V72.7189H81.1954V71.6374H82.2769V69.4744H81.1954V68.3929H76.8695V69.4744H75.788V72.7189H76.8695V73.8004H79.0325V75.9633H76.8695V77.0448H75.788V78.1263H74.7065V82.4523H75.788V83.5338H82.2769V82.4523H83.3584V79.2078H82.2769V77.0448H88.7659V79.2078H86.6029V83.5338H85.5214V84.6153H84.4399V85.6968H83.3584V86.7783H75.788ZM38.3242 119.778V118.697H36.1612V117.615H35.0797V116.534H33.9982V114.371H37.2427V115.452H38.3242V116.534H43.7317V115.452H44.8132V112.208H43.7317V111.126H42.6502V110.045H39.4057V108.963H36.1612V107.882H35.0797V106.8H33.9982V101.393H35.0797V100.311H36.1612V99.2299H37.2427V98.1484H44.8132V99.2299H45.8947V100.311H46.9762V102.474H43.7317V101.393H38.3242V102.474H37.2427V105.719H39.4057V106.8H42.6502V107.882H44.8132V108.963H46.9762V111.126H48.0577V116.534H46.9762V117.615H45.8947V118.697H43.7317V119.778H38.3242ZM57.2166 119.778V101.393H49.6462V98.1484H68.0316V101.393H60.4611V119.778H57.2166ZM70.1608 119.778V98.1484H73.4053V119.778H70.1608ZM84.4568 119.778V118.697H81.2124V117.615H80.1309V116.534H79.0494V115.452H77.9679V113.289H76.8864V104.637H77.9679V102.474H79.0494V101.393H80.1309V100.311H81.2124V99.2299H84.4568V98.1484H89.8643V99.2299H93.1088V100.311H94.1903V102.474H95.2718V103.556H96.3533V104.637H92.0273V103.556H90.9458V102.474H88.7828V101.393H85.5383V102.474H83.3753V103.556H82.2938V104.637H81.2124V106.8H80.1309V111.126H81.2124V113.289H82.2938V114.371H83.3753V115.452H85.5383V116.534H88.7828V115.452H90.9458V114.371H92.0273V113.289H96.3533V114.371H95.2718V115.452H94.1903V117.615H93.1088V118.697H89.8643V119.778H84.4568ZM99.1922 119.778V98.1484H102.437V107.882H103.518V106.8H104.6V105.719H105.681V104.637H106.763V103.556H107.844V102.474H108.926V101.393H110.007V100.311H111.089V99.2299H112.17V98.1484H116.496V99.2299H115.415V100.311H114.333V101.393H113.252V102.474H112.17V103.556H111.089V104.637H110.007V105.719H108.926V106.8H107.844V108.963H108.926V110.045H110.007V111.126H111.089V112.208H112.17V113.289H113.252V114.371H114.333V115.452H115.415V116.534H116.496V117.615H117.578V118.697H118.659V119.778H114.333V118.697H113.252V117.615H112.17V116.534H111.089V115.452H110.007V114.371H108.926V113.289H107.844V112.208H106.763V111.126H105.681V110.045H104.6V111.126H103.518V112.208H102.437V119.778H99.1922ZM122.208 119.778V116.534H125.452V119.778H122.208ZM122.208 113.289V98.1484H125.452V113.289H122.208Z" fill="white"/>
</svg>
