<svg width="206" height="156" viewBox="0 0 206 156" fill="none" xmlns="http://www.w3.org/2000/svg">
<circle cx="103.341" cy="78.3467" r="77.4541" fill="#FFB615"/>
<path d="M63.1907 62.0215V53.1403L72.0718 53.1403V62.0215L63.1907 62.0215ZM132.667 62.0215V53.1403H141.548V62.0215H132.667Z" fill="#0A0A0A"/>
<path d="M74.0312 94.4458L76.9916 94.4458L76.9916 97.4062L79.952 97.4062L79.952 100.367L85.8728 100.367L85.8728 103.327L94.7539 103.327L94.7539 106.287L112.516 106.287L112.516 103.327L121.397 103.327L121.397 100.367L127.318 100.367L127.318 97.4062L130.278 97.4062L130.278 94.4458L133.239 94.4458L133.239 103.327L130.278 103.327L130.278 106.287L127.318 106.287L127.318 109.248L124.358 109.248L124.358 112.208L115.477 112.208L115.477 115.168L91.7935 115.168L91.7935 112.208L82.9124 112.208L82.9124 109.248L79.952 109.248L79.952 106.287L76.9916 106.287L76.9916 103.327L74.0312 103.327L74.0312 94.4458Z" fill="#0A0A0A"/>
</svg>
