<svg width="192" height="192" viewBox="0 0 192 192" fill="none" xmlns="http://www.w3.org/2000/svg">
<path d="M95.7405 0.664062L178.316 143.689H13.1651L95.7405 0.664062Z" fill="#00C27B"/>
<path d="M83.2817 81.5231V80.3625H85.6029V79.2019H86.7635V78.0413H87.9241V75.7201H89.0847V71.0777H87.9241V68.7565H86.7635V67.5959H85.6029V66.4353H83.2817V65.2747H77.4787V81.5231H83.2817ZM73.9969 85.0049V61.7929H84.4423V62.9535H87.9241V64.1141H89.0847V65.2747H90.2453V66.4353H91.4059V68.7565H92.5665V78.0413H91.4059V80.3625H90.2453V81.5231H89.0847V82.6837H87.9241V83.8443H84.4423V85.0049H73.9969ZM108.597 81.5231V80.3625H110.918V79.2019H112.079V78.0413H113.24V75.7201H114.4V71.0777H113.24V68.7565H112.079V67.5959H110.918V66.4353H108.597V65.2747H105.115V66.4353H102.794V67.5959H101.634V68.7565H100.473V71.0777H99.3125V75.7201H100.473V78.0413H101.634V79.2019H102.794V80.3625H105.115V81.5231H108.597ZM103.955 85.0049V83.8443H100.473V82.6837H99.3125V81.5231H98.1519V80.3625H96.9913V78.0413H95.8307V68.7565H96.9913V66.4353H98.1519V65.2747H99.3125V64.1141H100.473V62.9535H103.955V61.7929H109.758V62.9535H113.24V64.1141H114.4V65.2747H115.561V66.4353H116.721V68.7565H117.882V78.0413H116.721V80.3625H115.561V81.5231H114.4V82.6837H113.24V83.8443H109.758V85.0049H103.955ZM57.4039 122.005V120.844H53.9221V119.684H52.7615V118.523H51.6009V117.362H50.4403V115.041H49.2797V105.756H50.4403V103.435H51.6009V102.275H52.7615V101.114H53.9221V99.9535H57.4039V98.7929H63.2069V99.9535H66.6887V101.114H67.8493V103.435H69.0099V104.596H70.1705V105.756H65.5281V104.596H64.3675V103.435H62.0463V102.275H58.5645V103.435H56.2433V104.596H55.0827V105.756H53.9221V108.078H52.7615V112.72H53.9221V115.041H55.0827V116.202H56.2433V117.362H58.5645V118.523H62.0463V117.362H64.3675V116.202H65.5281V115.041H66.6887V112.72H59.7251V109.238H70.1705V116.202H69.0099V117.362H67.8493V119.684H66.6887V120.844H63.2069V122.005H57.4039ZM86.2376 118.523V117.362H88.5588V116.202H89.7194V115.041H90.88V112.72H92.0406V108.078H90.88V105.756H89.7194V104.596H88.5588V103.435H86.2376V102.275H82.7558V103.435H80.4346V104.596H79.274V105.756H78.1134V108.078H76.9528V112.72H78.1134V115.041H79.274V116.202H80.4346V117.362H82.7558V118.523H86.2376ZM81.5952 122.005V120.844H78.1134V119.684H76.9528V118.523H75.7922V117.362H74.6316V115.041H73.471V105.756H74.6316V103.435H75.7922V102.275H76.9528V101.114H78.1134V99.9535H81.5952V98.7929H87.3982V99.9535H90.88V101.114H92.0406V102.275H93.2012V103.435H94.3618V105.756H95.5224V115.041H94.3618V117.362H93.2012V118.523H92.0406V119.684H90.88V120.844H87.3982V122.005H81.5952ZM111.045 118.523V117.362H113.367V116.202H114.527V115.041H115.688V112.72H116.848V108.078H115.688V105.756H114.527V104.596H113.367V103.435H111.045V102.275H107.564V103.435H105.242V104.596H104.082V105.756H102.921V108.078H101.761V112.72H102.921V115.041H104.082V116.202H105.242V117.362H107.564V118.523H111.045ZM106.403 122.005V120.844H102.921V119.684H101.761V118.523H100.6V117.362H99.4394V115.041H98.2788V105.756H99.4394V103.435H100.6V102.275H101.761V101.114H102.921V99.9535H106.403V98.7929H112.206V99.9535H115.688V101.114H116.848V102.275H118.009V103.435H119.17V105.756H120.33V115.041H119.17V117.362H118.009V118.523H116.848V119.684H115.688V120.844H112.206V122.005H106.403ZM132.843 118.523V117.362H135.164V116.202H136.325V115.041H137.485V112.72H138.646V108.078H137.485V105.756H136.325V104.596H135.164V103.435H132.843V102.275H127.04V118.523H132.843ZM123.558 122.005V98.7929H134.004V99.9535H137.485V101.114H138.646V102.275H139.807V103.435H140.967V105.756H142.128V115.041H140.967V117.362H139.807V118.523H138.646V119.684H137.485V120.844H134.004V122.005H123.558Z" fill="white"/>
</svg>
