<svg width="619" height="171" viewBox="0 0 619 171" fill="none" xmlns="http://www.w3.org/2000/svg">
<path fill-rule="evenodd" clip-rule="evenodd" d="M139.13 0H68.1516V68.1466H107.904C123.586 68.1466 136.298 80.8592 136.298 96.541V170.367H204.445V65.3152L139.13 0Z" fill="#0A0A0A"/>
<path fill-rule="evenodd" clip-rule="evenodd" d="M207.276 0H275.423L343.57 68.1466V170.367H275.423V96.541C275.423 80.8592 262.71 68.1466 247.029 68.1466H207.276V0Z" fill="#0A0A0A"/>
<path fill-rule="evenodd" clip-rule="evenodd" d="M343.58 0H411.726L479.873 68.1466V170.367H411.726V96.541C411.726 80.8592 399.014 68.1466 383.332 68.1466H343.58V0Z" fill="#0A0A0A"/>
<rect y="68.1479" width="68.1466" height="102.22" fill="#0A0A0A"/>
<path fill-rule="evenodd" clip-rule="evenodd" d="M619 0H550.853L482.707 68.1466L482.707 102.221L550.852 170.367H550.853H619V113.578H590.606C574.924 113.578 562.211 100.865 562.211 85.1833C562.211 69.5015 574.924 56.7889 590.606 56.7889H619V0Z" fill="#0A0A0A"/>
</svg>
