<svg width="527" height="145" viewBox="0 0 527 145" fill="none" xmlns="http://www.w3.org/2000/svg">
<path fill-rule="evenodd" clip-rule="evenodd" d="M173.882 55.5514L118.331 0H57.9629V57.9596H91.7727C105.11 57.9596 115.923 68.7719 115.923 82.1095V144.899H173.882V55.5514Z" fill="white"/>
<path fill-rule="evenodd" clip-rule="evenodd" d="M176.291 0H234.251L292.21 57.9596V144.899H234.251V82.1095C234.251 68.7719 223.438 57.9596 210.101 57.9596H176.291V0Z" fill="white"/>
<path fill-rule="evenodd" clip-rule="evenodd" d="M292.219 0H350.178L408.138 57.9596V144.899H350.178V82.1095C350.178 68.7719 339.366 57.9596 326.029 57.9596H292.219V0Z" fill="white"/>
<rect y="57.96" width="57.9596" height="86.9394" fill="white"/>
<path fill-rule="evenodd" clip-rule="evenodd" d="M526.468 0H468.508L410.549 57.9596V86.9399L468.508 144.899H468.508H526.468V86.9395V57.9596V0ZM502.318 48.2998C488.98 48.2998 478.168 59.1121 478.168 72.4497C478.168 85.7872 488.98 96.5995 502.318 96.5995H526.468V48.2998H502.318Z" fill="white"/>
</svg>
